<svg width="248" height="276" viewBox="0 0 248 276" fill="none" xmlns="http://www.w3.org/2000/svg">
<path d="M68.6468 200.126H66.58C66.2478 200.126 65.9785 200.389 65.9785 200.714V207.557C65.9785 207.882 66.2478 208.145 66.58 208.145H68.6468C68.979 208.145 69.2483 207.882 69.2483 207.557V200.714C69.2483 200.389 68.979 200.126 68.6468 200.126Z" stroke="#C1272D" stroke-miterlimit="10"/>
<path d="M74.1573 197.453H72.0905C71.7583 197.453 71.489 197.716 71.489 198.04V207.557C71.489 207.882 71.7583 208.145 72.0905 208.145H74.1573C74.4895 208.145 74.7588 207.882 74.7588 207.557V198.04C74.7588 197.716 74.4895 197.453 74.1573 197.453Z" stroke="#C1272D" stroke-miterlimit="10"/>
<path d="M79.6673 194.779H77.6005C77.2683 194.779 76.999 195.042 76.999 195.366V207.557C76.999 207.881 77.2683 208.144 77.6005 208.144H79.6673C79.9995 208.144 80.2688 207.881 80.2688 207.557V195.366C80.2688 195.042 79.9995 194.779 79.6673 194.779Z" stroke="#C1272D" stroke-miterlimit="10"/>
<path d="M60.5479 188.827V211.999" stroke="#C1272D" stroke-linecap="round" stroke-linejoin="round"/>
<path d="M85.0044 208.145H56.5461" stroke="#C1272D" stroke-linecap="round" stroke-linejoin="round"/>
<path d="M176.658 221.879C178.93 221.879 180.771 220.08 180.771 217.861C180.771 215.643 178.93 213.844 176.658 213.844C174.386 213.844 172.545 215.643 172.545 217.861C172.545 220.08 174.386 221.879 176.658 221.879Z" stroke="#242630" stroke-width="1.91157" stroke-linecap="round" stroke-linejoin="round"/>
<path d="M208.987 168.432C211.258 168.432 213.1 166.633 213.1 164.414C213.1 162.195 211.258 160.396 208.987 160.396C206.715 160.396 204.874 162.195 204.874 164.414C204.874 166.633 206.715 168.432 208.987 168.432Z" stroke="#242630" stroke-width="1.91157" stroke-linecap="round" stroke-linejoin="round"/>
<path d="M19.3028 177.983C21.5744 177.983 23.4158 176.184 23.4158 173.965C23.4158 171.746 21.5744 169.947 19.3028 169.947C17.0312 169.947 15.1897 171.746 15.1897 173.965C15.1897 176.184 17.0312 177.983 19.3028 177.983Z" stroke="#242630" stroke-width="1.91157" stroke-linecap="round" stroke-linejoin="round"/>
<path d="M82.938 164.054C84.7804 164.054 86.2739 162.595 86.2739 160.795C86.2739 158.996 84.7804 157.537 82.938 157.537C81.0956 157.537 79.6021 158.996 79.6021 160.795C79.6021 162.595 81.0956 164.054 82.938 164.054Z" stroke="#242630" stroke-width="1.91157" stroke-linecap="round" stroke-linejoin="round"/>
<path d="M164.079 272.547C165.921 272.547 167.415 271.088 167.415 269.288C167.415 267.489 165.921 266.03 164.079 266.03C162.237 266.03 160.743 267.489 160.743 269.288C160.743 271.088 162.237 272.547 164.079 272.547Z" stroke="#242630" stroke-width="1.91157" stroke-linecap="round" stroke-linejoin="round"/>
<path d="M141.125 140.478C142.967 140.478 144.461 139.019 144.461 137.219C144.461 135.42 142.967 133.961 141.125 133.961C139.283 133.961 137.789 135.42 137.789 137.219C137.789 139.019 139.283 140.478 141.125 140.478Z" stroke="#242630" stroke-width="1.91157" stroke-linecap="round" stroke-linejoin="round"/>
<path d="M58.0535 240.21C59.8958 240.21 61.3894 238.752 61.3894 236.952C61.3894 235.152 59.8958 233.693 58.0535 233.693C56.2111 233.693 54.7175 235.152 54.7175 236.952C54.7175 238.752 56.2111 240.21 58.0535 240.21Z" stroke="#242630" stroke-width="1.91157" stroke-linecap="round" stroke-linejoin="round"/>
<path d="M223.117 199.759C223.117 200.077 223.02 200.387 222.84 200.652C222.659 200.916 222.402 201.122 222.101 201.243C221.801 201.365 221.47 201.397 221.151 201.335C220.832 201.273 220.539 201.12 220.308 200.895C220.078 200.67 219.922 200.384 219.858 200.072C219.795 199.761 219.827 199.437 219.952 199.144C220.076 198.85 220.287 198.599 220.558 198.423C220.828 198.246 221.146 198.152 221.472 198.152C221.908 198.152 222.326 198.321 222.635 198.623C222.943 198.924 223.117 199.333 223.117 199.759V199.759Z" stroke="#242630" stroke-width="1.91157" stroke-linecap="round" stroke-linejoin="round"/>
<path d="M81.1085 116.156C82.0171 116.156 82.7536 115.436 82.7536 114.549C82.7536 113.661 82.0171 112.942 81.1085 112.942C80.1999 112.942 79.4634 113.661 79.4634 114.549C79.4634 115.436 80.1999 116.156 81.1085 116.156Z" stroke="#242630" stroke-width="1.91157" stroke-linecap="round" stroke-linejoin="round"/>
<path d="M170.245 187C171.153 187 171.89 186.281 171.89 185.393C171.89 184.506 171.153 183.786 170.245 183.786C169.336 183.786 168.6 184.506 168.6 185.393C168.6 186.281 169.336 187 170.245 187Z" stroke="#242630" stroke-width="1.91157" stroke-linecap="round" stroke-linejoin="round"/>
<path d="M2.64511 187.637C3.55368 187.637 4.29022 186.918 4.29022 186.03C4.29022 185.143 3.55368 184.423 2.64511 184.423C1.73654 184.423 1 185.143 1 186.03C1 186.918 1.73654 187.637 2.64511 187.637Z" stroke="#242630" stroke-width="1.91157" stroke-linecap="round" stroke-linejoin="round"/>
<path d="M175.485 114.549C176.394 114.549 177.131 113.829 177.131 112.942C177.131 112.054 176.394 111.335 175.485 111.335C174.577 111.335 173.84 112.054 173.84 112.942C173.84 113.829 174.577 114.549 175.485 114.549Z" stroke="#242630" stroke-width="1.91157" stroke-linecap="round" stroke-linejoin="round"/>
<path d="M137.824 163.057C137.824 163.375 137.727 163.685 137.546 163.949C137.365 164.214 137.109 164.419 136.808 164.541C136.508 164.662 136.177 164.694 135.858 164.632C135.539 164.57 135.246 164.417 135.016 164.192C134.786 163.968 134.63 163.681 134.566 163.37C134.503 163.058 134.535 162.735 134.66 162.442C134.784 162.148 134.995 161.897 135.266 161.721C135.536 161.544 135.854 161.45 136.179 161.45C136.615 161.45 137.034 161.62 137.342 161.921C137.65 162.222 137.824 162.631 137.824 163.057V163.057Z" stroke="#242630" stroke-width="1.91157" stroke-linecap="round" stroke-linejoin="round"/>
<path d="M226.983 230.088C226.983 230.406 226.886 230.717 226.705 230.981C226.525 231.245 226.268 231.451 225.967 231.573C225.666 231.695 225.336 231.726 225.017 231.664C224.697 231.602 224.404 231.449 224.174 231.225C223.944 231 223.787 230.714 223.724 230.402C223.661 230.09 223.693 229.767 223.818 229.473C223.942 229.18 224.153 228.929 224.424 228.752C224.694 228.576 225.012 228.481 225.338 228.481C225.774 228.482 226.192 228.651 226.501 228.952C226.809 229.254 226.982 229.662 226.983 230.088V230.088Z" stroke="#242630" stroke-width="1.91157" stroke-linecap="round" stroke-linejoin="round"/>
<path d="M179.82 262.329C179.82 262.646 179.724 262.957 179.543 263.221C179.362 263.485 179.105 263.691 178.805 263.812C178.504 263.934 178.174 263.966 177.855 263.903C177.536 263.841 177.243 263.688 177.013 263.464C176.783 263.239 176.626 262.953 176.563 262.641C176.499 262.33 176.532 262.007 176.656 261.713C176.781 261.42 176.992 261.169 177.262 260.992C177.533 260.816 177.851 260.722 178.176 260.722C178.392 260.722 178.606 260.763 178.805 260.844C179.005 260.925 179.186 261.043 179.339 261.192C179.492 261.342 179.613 261.519 179.695 261.714C179.778 261.909 179.82 262.118 179.82 262.329V262.329Z" stroke="#242630" stroke-width="1.91157" stroke-linecap="round" stroke-linejoin="round"/>
<path d="M49.7656 272.634C49.7657 272.952 49.6693 273.262 49.4886 273.527C49.3079 273.791 49.051 273.997 48.7504 274.119C48.4498 274.24 48.119 274.272 47.7999 274.21C47.4807 274.148 47.1875 273.995 46.9574 273.771C46.7273 273.546 46.5705 273.26 46.507 272.948C46.4435 272.636 46.476 272.313 46.6005 272.019C46.725 271.726 46.9359 271.475 47.2064 271.298C47.477 271.122 47.7951 271.027 48.1205 271.027C48.5567 271.027 48.975 271.197 49.2835 271.498C49.592 271.799 49.7654 272.208 49.7656 272.634V272.634Z" stroke="#242630" stroke-width="1.91157" stroke-linecap="round" stroke-linejoin="round"/>
<path d="M10.2922 241.711C10.2922 242.029 10.1957 242.34 10.0149 242.604C9.83409 242.869 9.57712 243.075 9.27648 243.196C8.97584 243.318 8.64504 243.349 8.3259 243.287C8.00676 243.225 7.71363 243.072 7.48358 242.848C7.25354 242.623 7.0969 242.336 7.03349 242.025C6.97008 241.713 7.00275 241.39 7.12736 241.096C7.25196 240.802 7.46291 240.552 7.73353 240.375C8.00415 240.199 8.32227 240.104 8.64766 240.104C8.86368 240.104 9.07757 240.146 9.27713 240.227C9.47669 240.308 9.65801 240.426 9.81072 240.575C9.96344 240.724 10.0846 240.902 10.1672 241.097C10.2498 241.291 10.2923 241.5 10.2922 241.711V241.711Z" stroke="#242630" stroke-width="1.91157" stroke-linecap="round" stroke-linejoin="round"/>
<path d="M235.196 187.275C241.829 187.275 247.206 184.786 247.206 181.715C247.206 178.644 241.829 176.154 235.196 176.154C228.563 176.154 223.186 178.644 223.186 181.715C223.186 184.786 228.563 187.275 235.196 187.275Z" stroke="#22B573" stroke-linecap="round" stroke-linejoin="round"/>
<path d="M240.056 184.607C243.505 179.074 244.125 173.294 241.44 171.697C238.755 170.1 233.782 173.291 230.333 178.825C226.884 184.358 226.264 190.138 228.949 191.735C231.634 193.332 236.607 190.141 240.056 184.607Z" stroke="#22B573" stroke-linecap="round" stroke-linejoin="round"/>
<path d="M241.441 191.735C244.127 190.138 243.508 184.357 240.058 178.823C236.609 173.289 231.636 170.097 228.95 171.694C226.265 173.291 226.884 179.072 230.334 184.606C233.783 190.14 238.756 193.332 241.441 191.735Z" stroke="#22B573" stroke-linecap="round" stroke-linejoin="round"/>
<path d="M235.196 183.186C236.028 183.186 236.703 182.527 236.703 181.714C236.703 180.902 236.028 180.243 235.196 180.243C234.364 180.243 233.689 180.902 233.689 181.714C233.689 182.527 234.364 183.186 235.196 183.186Z" stroke="#22B573" stroke-linecap="round" stroke-linejoin="round"/>
<path d="M109.389 159.469L103.566 165.061C103.27 165.344 102.871 165.501 102.457 165.498C102.043 165.494 101.648 165.33 101.357 165.042V165.042C101.067 164.753 100.907 164.364 100.91 163.96C100.914 163.556 101.081 163.169 101.376 162.885L107.199 157.293C107.495 157.01 107.893 156.853 108.307 156.856C108.721 156.86 109.117 157.023 109.407 157.311V157.311C109.697 157.6 109.858 157.989 109.855 158.394C109.851 158.798 109.684 159.185 109.389 159.469V159.469Z" stroke="#242630" stroke-miterlimit="10" stroke-linecap="round"/>
<path d="M116.255 157.11C119.961 157.11 122.965 154.176 122.965 150.556C122.965 146.936 119.961 144.001 116.255 144.001C112.549 144.001 109.544 146.936 109.544 150.556C109.544 154.176 112.549 157.11 116.255 157.11Z" stroke="#242630" stroke-miterlimit="10" stroke-linecap="round"/>
<path d="M116.255 155.286C118.929 155.286 121.097 153.168 121.097 150.556C121.097 147.944 118.929 145.826 116.255 145.826C113.581 145.826 111.413 147.944 111.413 150.556C111.413 153.168 113.581 155.286 116.255 155.286Z" stroke="#242630" stroke-miterlimit="10" stroke-linecap="round"/>
<path d="M111.51 155.19L109.627 157.029" stroke="#242630" stroke-miterlimit="10" stroke-linecap="round"/>
<path d="M231.261 138.896L235.705 138.931C236.328 138.936 236.922 139.182 237.359 139.615C237.795 140.048 238.037 140.633 238.032 141.241L238.031 141.417L228.895 141.346L228.896 141.169C228.901 140.562 229.153 139.981 229.597 139.554C230.04 139.128 230.639 138.891 231.261 138.896V138.896Z" stroke="#F9CD39" stroke-miterlimit="10" stroke-linecap="round"/>
<path d="M234.918 132.635C239.891 131.835 243.258 127.25 242.439 122.392C241.621 117.535 236.926 114.246 231.953 115.046C226.981 115.846 223.613 120.432 224.432 125.289C225.251 130.146 229.946 133.435 234.918 132.635Z" stroke="#F9CD39" stroke-miterlimit="10"/>
<path d="M235.692 132.478L231.18 115.204L230.603 113.1C229.152 113.454 227.787 114.084 226.586 114.956C225.385 115.827 224.372 116.921 223.605 118.176C222.839 119.43 222.333 120.821 222.118 122.267C221.903 123.713 221.983 125.186 222.353 126.602C222.723 128.017 223.375 129.348 224.273 130.517C225.171 131.685 226.296 132.669 227.584 133.412C228.873 134.155 230.298 134.641 231.78 134.844C233.261 135.047 234.769 134.962 236.217 134.593L235.666 132.483" stroke="#F9CD39" stroke-linecap="round" stroke-linejoin="round"/>
<path d="M232.171 118.999C235.224 118.239 237.476 116.773 237.202 115.725C236.929 114.677 234.232 114.444 231.18 115.204C228.128 115.965 225.876 117.431 226.149 118.479C226.423 119.527 229.119 119.76 232.171 118.999Z" stroke="#F9CD39" stroke-miterlimit="10"/>
<path d="M235.69 132.479C238.743 131.719 240.995 130.254 240.722 129.206C240.448 128.158 237.752 127.924 234.7 128.684C231.648 129.444 229.395 130.91 229.669 131.958C229.942 133.006 232.638 133.239 235.69 132.479Z" stroke="#F9CD39" stroke-miterlimit="10"/>
<path d="M235.692 132.478C238.133 131.869 239.103 127.509 237.857 122.739C236.611 117.97 233.622 114.596 231.181 115.205C228.739 115.813 227.77 120.173 229.015 124.943C230.261 129.712 233.25 133.086 235.692 132.478Z" stroke="#F9CD39" stroke-miterlimit="10"/>
<path d="M224.594 126.044L242.277 121.638" stroke="#F9CD39" stroke-miterlimit="10"/>
<path d="M233.436 134.941V138.889" stroke="#F9CD39" stroke-miterlimit="10"/>
<path d="M227.768 141.451H239.436" stroke="#F9CD39" stroke-miterlimit="10" stroke-linecap="round"/>
<path d="M116.05 107H109.93V131.644H116.05V107Z" stroke="#242630" stroke-linecap="round" stroke-linejoin="round"/>
<path d="M116.05 109.956H112.99" stroke="#242630" stroke-linecap="round" stroke-linejoin="round"/>
<path d="M116.05 115.666H112.99" stroke="#242630" stroke-linecap="round" stroke-linejoin="round"/>
<path d="M116.05 121.376H112.99" stroke="#242630" stroke-linecap="round" stroke-linejoin="round"/>
<path d="M116.05 127.086H112.99" stroke="#242630" stroke-linecap="round" stroke-linejoin="round"/>
<path d="M116.05 111.846H114.521" stroke="#242630" stroke-linecap="round" stroke-linejoin="round"/>
<path d="M116.05 113.756H114.521" stroke="#242630" stroke-linecap="round" stroke-linejoin="round"/>
<path d="M116.05 117.566H114.521" stroke="#242630" stroke-linecap="round" stroke-linejoin="round"/>
<path d="M116.05 119.476H114.521" stroke="#242630" stroke-linecap="round" stroke-linejoin="round"/>
<path d="M116.05 123.286H114.521" stroke="#242630" stroke-linecap="round" stroke-linejoin="round"/>
<path d="M116.05 125.196H114.521" stroke="#242630" stroke-linecap="round" stroke-linejoin="round"/>
<path d="M104.257 115.666H102.421" stroke="#242630" stroke-linecap="round" stroke-linejoin="round"/>
<path d="M104.257 121.376H102.421" stroke="#242630" stroke-linecap="round" stroke-linejoin="round"/>
<path d="M104.257 127.086H102.421" stroke="#242630" stroke-linecap="round" stroke-linejoin="round"/>
<path d="M104.256 111.846H103.338" stroke="#242630" stroke-linecap="round" stroke-linejoin="round"/>
<path d="M104.256 113.756H103.338" stroke="#242630" stroke-linecap="round" stroke-linejoin="round"/>
<path d="M104.256 117.566H103.338" stroke="#242630" stroke-linecap="round" stroke-linejoin="round"/>
<path d="M104.256 119.477H103.338" stroke="#242630" stroke-linecap="round" stroke-linejoin="round"/>
<path d="M104.256 123.287H103.338" stroke="#242630" stroke-linecap="round" stroke-linejoin="round"/>
<path d="M104.256 129.09H103.338" stroke="#242630" stroke-linecap="round" stroke-linejoin="round"/>
<path d="M104.256 125.196H103.338" stroke="#242630" stroke-linecap="round" stroke-linejoin="round"/>
<path d="M90.7305 131.644L104.257 107V131.644H90.7305Z" stroke="#242630" stroke-linecap="round" stroke-linejoin="round"/>
<path d="M96.8774 128.05L100.577 121.309V128.05H96.8774Z" stroke="#242630" stroke-linecap="round" stroke-linejoin="round"/>
<path d="M36.2443 154.317L40.5947 150.067L28.5407 138.293L24.1902 142.542L36.2443 154.317Z" stroke="#279BE2" stroke-linecap="round" stroke-linejoin="round"/>
<path d="M41.7731 155.469L40.5953 150.068L36.2458 154.318L41.7731 155.469Z" stroke="#279BE2" stroke-linecap="round" stroke-linejoin="round"/>
<path d="M41.2232 152.947L39.1919 154.931" stroke="#279BE2" stroke-linecap="round" stroke-linejoin="round"/>
<path d="M28.5391 138.292L24.188 142.542L24.0651 142.422C23.4888 141.858 23.1653 141.094 23.1656 140.297C23.1659 139.501 23.4901 138.737 24.0668 138.174V138.174C24.6435 137.61 25.4255 137.294 26.2411 137.293C27.0567 137.293 27.839 137.609 28.4161 138.172L28.5391 138.292Z" stroke="#279BE2" stroke-linecap="round" stroke-linejoin="round"/>
<path d="M29.715 139.44L25.3638 143.69" stroke="#279BE2" stroke-linecap="round" stroke-linejoin="round"/>
<path d="M38.4189 152.193L27.5383 141.565" stroke="#279BE2" stroke-linecap="round" stroke-linejoin="round"/>
<path d="M45.8453 249.692V251.261C45.8439 253.511 46.2964 255.739 47.1771 257.817C48.0578 259.896 49.3494 261.785 50.9779 263.376C52.6064 264.967 54.54 266.229 56.6681 267.089C58.7962 267.95 61.0771 268.392 63.3803 268.391H224.148V268.828C224.148 270.465 223.482 272.034 222.297 273.192C221.113 274.349 219.506 275 217.83 275H62.7462C56.1835 274.999 49.8899 272.452 45.2493 267.919C40.6088 263.386 38.0012 257.239 38 250.828V249.105C38.0012 242.695 40.6088 236.547 45.2493 232.014C49.8899 227.481 56.1835 224.934 62.7462 224.933H217.198C219.038 224.93 220.803 225.64 222.107 226.909C223.41 228.177 224.144 229.899 224.148 231.696V232.571H63.3468C58.7021 232.576 54.2495 234.382 50.9677 237.592C47.6858 240.803 45.8434 245.155 45.8453 249.692Z" fill="#880015"/>
<path d="M212.603 232.576H62.6913C59.8016 232.574 56.9635 233.324 54.4701 234.751C51.8189 236.29 49.6267 238.48 48.1122 241.104C46.5977 243.728 45.8138 246.694 45.8385 249.706V251.265C45.8146 254.277 46.5989 257.242 48.1134 259.865C49.6278 262.488 51.8195 264.678 54.4701 266.216C56.9635 267.643 59.8016 268.394 62.6913 268.391H211.754C204.086 258.123 204.376 242.446 212.603 232.576Z" fill="#FBFDFF"/>
<path d="M45.8453 249.692V251.261C45.8439 253.511 46.2964 255.739 47.1771 257.817C48.0578 259.896 49.3494 261.785 50.9779 263.376C52.6064 264.967 54.54 266.229 56.6681 267.089C58.7962 267.95 61.0771 268.392 63.3803 268.391H80.8647V275H62.7462C56.1835 274.999 49.8899 272.452 45.2493 267.919C40.6088 263.386 38.0012 257.239 38 250.828V249.105C38.0012 242.695 40.6088 236.547 45.2493 232.014C49.8899 227.481 56.1835 224.934 62.7462 224.933H80.8583V232.571H63.3514C58.7059 232.574 54.2521 234.38 50.9693 237.591C47.6864 240.801 45.8434 245.154 45.8453 249.692Z" fill="#880015"/>
<path d="M216.772 199.743V201.312C216.773 203.561 216.32 205.789 215.439 207.867C214.558 209.945 213.267 211.833 211.639 213.424C210.01 215.014 208.077 216.275 205.95 217.136C203.822 217.996 201.542 218.439 199.24 218.438H38.4673V218.875C38.4675 220.512 39.1332 222.081 40.318 223.239C41.5027 224.396 43.1096 225.047 44.7852 225.047H199.871C206.434 225.046 212.727 222.499 217.368 217.966C222.008 213.433 224.616 207.285 224.617 200.875V199.152C224.616 192.742 222.008 186.594 217.368 182.061C212.727 177.528 206.434 174.981 199.871 174.98H45.4193C44.5083 174.978 43.6058 175.152 42.7633 175.49C41.9209 175.829 41.1551 176.327 40.5095 176.955C39.8639 177.583 39.3513 178.329 39.0009 179.15C38.6505 179.972 38.4692 180.853 38.4673 181.742V182.617H199.269C203.915 182.621 208.368 184.428 211.651 187.64C214.933 190.851 216.775 195.205 216.772 199.743Z" fill="#736FA5"/>
<path d="M50.0146 182.624H199.926C202.816 182.621 205.654 183.372 208.147 184.799C210.798 186.337 212.989 188.527 214.504 191.15C216.018 193.773 216.803 196.738 216.779 199.75V201.309C216.803 204.321 216.019 207.287 214.505 209.911C212.99 212.535 210.798 214.725 208.147 216.264C205.654 217.691 202.816 218.441 199.926 218.439H50.8635C58.5312 208.171 58.2413 192.494 50.0146 182.624Z" fill="white"/>
<path d="M216.773 199.743V201.312C216.773 203.561 216.32 205.789 215.44 207.867C214.559 209.945 213.267 211.833 211.639 213.424C210.011 215.014 208.078 216.275 205.95 217.136C203.823 217.996 201.543 218.439 199.24 218.438H181.756V225.047H199.868C206.431 225.046 212.724 222.498 217.365 217.966C222.005 213.433 224.613 207.285 224.614 200.875V199.152C224.613 192.742 222.005 186.594 217.365 182.061C212.724 177.528 206.431 174.981 199.868 174.98H181.759V182.617H199.269C203.915 182.621 208.369 184.428 211.651 187.64C214.934 190.851 216.776 195.205 216.773 199.743Z" fill="#676599"/>
<path d="M69.1974 159.322V160.296C69.1973 161.687 69.4779 163.066 70.0233 164.352C70.5687 165.637 71.3681 166.806 72.3759 167.79C73.3837 168.774 74.5801 169.554 75.8968 170.086C77.2134 170.619 78.6245 170.892 80.0495 170.891H179.532V171.157C179.532 172.17 179.12 173.141 178.387 173.857C177.654 174.573 176.659 174.976 175.623 174.976H79.6563C75.5963 174.974 71.7031 173.398 68.8323 170.594C65.9614 167.79 64.3479 163.987 64.3462 160.021V158.955C64.3476 154.989 65.9611 151.186 68.832 148.382C71.7029 145.577 75.5962 144.001 79.6563 144H175.231C176.369 143.998 177.462 144.438 178.268 145.223C179.075 146.007 179.529 147.073 179.532 148.185V148.725H80.0304C77.1555 148.728 74.3993 149.846 72.3678 151.833C70.3363 153.82 69.196 156.514 69.1974 159.322Z" fill="#F8C107"/>
<path d="M172.387 148.729H79.6207C77.8324 148.727 76.076 149.192 74.533 150.075C72.8922 151.026 71.5353 152.381 70.5974 154.005C69.6596 155.628 69.1737 157.463 69.1881 159.327V160.291C69.1738 162.155 69.6598 163.99 70.5976 165.613C71.5354 167.236 72.8922 168.591 74.533 169.543C76.0762 170.425 77.8324 170.89 79.6207 170.889H171.862C167.117 164.538 167.297 154.837 172.387 148.729Z" fill="white"/>
<path d="M69.1974 159.321V160.295C69.1973 161.686 69.4779 163.065 70.0233 164.351C70.5687 165.636 71.3681 166.805 72.3759 167.789C73.3837 168.773 74.5801 169.553 75.8968 170.085C77.2134 170.618 78.6245 170.891 80.0495 170.89H90.8662V174.98H79.6563C75.5963 174.978 71.7031 173.402 68.8323 170.598C65.9614 167.793 64.3479 163.99 64.3462 160.025V158.958C64.3476 154.992 65.9611 151.189 68.832 148.385C71.7029 145.581 75.5962 144.005 79.6563 144.003H90.8635V148.729H80.0304C77.1563 148.731 74.4007 149.849 72.3694 151.835C70.3381 153.821 69.1972 156.514 69.1974 159.321Z" fill="#E5A76E"/>
</svg>
