<svg width="26" height="25" viewBox="0 0 26 25" fill="none" xmlns="http://www.w3.org/2000/svg">
<path d="M3.08163 11.1811C3.11147 11.1281 3.81781 9.85458 5.37804 8.58762C7.46561 6.89506 10.0966 6 12.9994 6C15.9022 6 18.5332 6.89506 20.6183 8.58762C22.1786 9.85458 22.8849 11.1281 22.9172 11.1811C22.9718 11.2817 23 11.3904 23 11.5003C23 11.6102 22.9718 11.719 22.9172 11.8195C22.8873 11.8732 22.181 13.1461 20.6199 14.413C18.5332 16.1056 15.9022 17 12.9994 17C10.0966 17 7.46561 16.1056 5.38127 14.413C3.82023 13.1461 3.11389 11.8732 3.08405 11.8195C3.02905 11.7191 3.00042 11.6105 3 11.5005C2.99959 11.3906 3.02739 11.2818 3.08163 11.1811ZM6.79555 13.3418C8.52673 14.726 10.6135 15.4286 12.9994 15.4286C15.3853 15.4286 17.4721 14.726 19.2008 13.3412C19.881 12.7946 20.4662 12.1751 20.9401 11.5C20.4661 10.8251 19.8809 10.2059 19.2008 9.65946C17.4713 8.27399 15.3853 7.57143 12.9994 7.57143C10.6135 7.57143 8.52753 8.27399 6.79797 9.65946C6.1178 10.2059 5.53266 10.8251 5.05874 11.5C5.53268 12.1751 6.11782 12.7945 6.79797 13.3412L6.79555 13.3418ZM12.9994 8.61905C13.7011 8.61905 14.387 8.78801 14.9705 9.10458C15.5539 9.42114 16.0086 9.87108 16.2772 10.3975C16.5457 10.9239 16.6159 11.5032 16.479 12.062C16.3422 12.6209 16.0043 13.1342 15.5081 13.5371C15.0119 13.94 14.3798 14.2144 13.6915 14.3256C13.0033 14.4368 12.29 14.3797 11.6417 14.1617C10.9934 13.9436 10.4393 13.5743 10.0495 13.1006C9.65966 12.6268 9.45158 12.0698 9.45158 11.5C9.45265 10.7362 9.82678 10.0039 10.4919 9.46382C11.157 8.92372 12.0588 8.61991 12.9994 8.61905ZM12.9994 12.8095C13.3183 12.8095 13.6301 12.7327 13.8953 12.5888C14.1605 12.4449 14.3672 12.2404 14.4893 12.0011C14.6113 11.7618 14.6433 11.4985 14.5811 11.2445C14.5188 10.9905 14.3652 10.7572 14.1397 10.574C13.9142 10.3909 13.6268 10.2662 13.314 10.2156C13.0012 10.1651 12.6769 10.191 12.3823 10.2902C12.0876 10.3893 11.8357 10.5571 11.6585 10.7725C11.4813 10.9878 11.3868 11.241 11.3868 11.5C11.3868 11.8473 11.5567 12.1804 11.8591 12.426C12.1615 12.6716 12.5717 12.8095 12.9994 12.8095Z" fill="#B0B0B0"/>
</svg>
