<svg width="26" height="25" viewBox="0 0 26 25" fill="none" xmlns="http://www.w3.org/2000/svg">
<path d="M22.583 17.6062C22.4954 17.6561 22.3988 17.6882 22.2988 17.7008C22.1987 17.7133 22.0972 17.7061 22 17.6794C21.9027 17.6527 21.8117 17.6071 21.7321 17.5453C21.6526 17.4834 21.586 17.4065 21.5362 17.3189L19.7148 14.1399C18.6559 14.8551 17.4878 15.3939 16.256 15.7351L16.8188 19.1076C16.8354 19.2069 16.8322 19.3084 16.8095 19.4065C16.7868 19.5046 16.7449 19.5972 16.6863 19.6791C16.6278 19.761 16.5536 19.8306 16.4681 19.8838C16.3826 19.9371 16.2874 19.973 16.188 19.9895C16.1471 19.9962 16.1057 19.9997 16.0643 20C15.8829 19.9997 15.7074 19.9352 15.5691 19.8179C15.4308 19.7006 15.3386 19.5382 15.3089 19.3594L14.7558 16.0483C13.5893 16.2105 12.406 16.2105 11.2395 16.0483L10.6864 19.3594C10.6566 19.5385 10.5641 19.7012 10.4254 19.8186C10.2867 19.9359 10.1108 20.0002 9.92907 20C9.88668 19.9998 9.84436 19.9963 9.80253 19.9895C9.70312 19.973 9.60794 19.9371 9.52242 19.8838C9.43691 19.8306 9.36274 19.761 9.30416 19.6791C9.24558 19.5972 9.20373 19.5046 9.18101 19.4065C9.15829 19.3084 9.15514 19.2069 9.17175 19.1076L9.73734 15.7351C8.50608 15.3928 7.33863 14.8531 6.28051 14.137L4.46486 17.3189C4.41451 17.4066 4.34736 17.4834 4.26726 17.5452C4.18716 17.6069 4.09567 17.6522 3.99802 17.6786C3.90037 17.7051 3.79846 17.712 3.69813 17.6991C3.59779 17.6861 3.50099 17.6536 3.41324 17.6033C3.3255 17.553 3.24853 17.4859 3.18673 17.4059C3.12494 17.3259 3.07953 17.2345 3.05309 17.137C3.02665 17.0394 3.0197 16.9377 3.03265 16.8374C3.04559 16.7372 3.07817 16.6405 3.12853 16.5529L5.04579 13.2015C4.37236 12.6204 3.75311 11.9794 3.19563 11.2865C3.12611 11.2089 3.07314 11.118 3.03995 11.0194C3.00675 10.9207 2.99404 10.8163 3.00258 10.7126C3.01112 10.6089 3.04073 10.508 3.08962 10.416C3.1385 10.3241 3.20562 10.2431 3.28689 10.178C3.36816 10.1128 3.46186 10.0649 3.56229 10.0371C3.66271 10.0094 3.76775 10.0023 3.87099 10.0164C3.97423 10.0306 4.0735 10.0656 4.16275 10.1193C4.252 10.173 4.32936 10.2443 4.39009 10.3289C5.98142 12.2957 8.76529 14.6378 12.9967 14.6378C17.2281 14.6378 20.012 12.2928 21.6033 10.3289C21.6633 10.2426 21.7405 10.1696 21.83 10.1143C21.9195 10.0591 22.0195 10.0228 22.1236 10.0078C22.2278 9.99284 22.3339 9.99941 22.4354 10.0271C22.5369 10.0549 22.6316 10.1031 22.7136 10.169C22.7956 10.2348 22.8632 10.3168 22.9121 10.4099C22.961 10.5029 22.9902 10.605 22.9979 10.7099C23.0057 10.8147 22.9917 10.92 22.9569 11.0191C22.9222 11.1183 22.8673 11.2093 22.7958 11.2865C22.2384 11.9794 21.6191 12.6204 20.9457 13.2015L22.8629 16.5529C22.9144 16.6402 22.948 16.7369 22.9618 16.8374C22.9756 16.9378 22.9693 17.04 22.9432 17.1379C22.9172 17.2359 22.8719 17.3277 22.8101 17.4081C22.7483 17.4885 22.6711 17.5558 22.583 17.6062Z" fill="#B0B0B0"/>
</svg>
