<svg width="173" height="182" viewBox="0 0 173 182" fill="none" xmlns="http://www.w3.org/2000/svg">
<path d="M164.658 155.327C164.418 155.269 164.205 155.13 164.056 154.934C160.79 144.156 157.524 133.377 154.257 122.599C154.775 122.011 155.293 121.423 155.811 120.836L165.942 154.629C165.828 154.865 165.643 155.059 165.413 155.185C165.182 155.31 164.919 155.359 164.658 155.327Z" fill="#482E72"/>
<path opacity="0.39" d="M160.47 139.906L160.285 139.921C160.089 139.936 159.895 139.884 159.734 139.773C159.572 139.662 159.454 139.499 159.399 139.311L150.561 109.358C150.529 109.251 150.519 109.138 150.531 109.026C150.543 108.914 150.576 108.806 150.63 108.708C150.684 108.609 150.757 108.522 150.844 108.452C150.932 108.381 151.032 108.329 151.14 108.297L151.149 108.294C151.366 108.23 151.599 108.255 151.797 108.362C151.996 108.469 152.144 108.651 152.209 108.867C155.213 118.848 158.217 128.828 161.22 138.809C161.257 138.931 161.266 139.06 161.246 139.186C161.227 139.312 161.179 139.432 161.107 139.537C161.035 139.643 160.941 139.73 160.83 139.794C160.72 139.858 160.597 139.896 160.47 139.906Z" fill="#2B194E"/>
<path d="M146.905 124.284C145.635 134.757 144.364 145.23 143.092 155.703C143.066 155.924 142.961 156.129 142.797 156.28C142.634 156.431 142.422 156.519 142.199 156.529L142.157 156.531C142.021 156.536 141.884 156.512 141.758 156.46C141.632 156.407 141.518 156.328 141.426 156.227C141.333 156.127 141.264 156.007 141.222 155.876C141.181 155.746 141.168 155.608 141.186 155.472L145.201 124.068L146.053 124.178L146.905 124.284Z" fill="#482E72"/>
<path opacity="0.39" d="M146.234 129.525C145.442 136.169 144.649 142.811 143.855 149.454C143.718 149.68 143.505 149.849 143.254 149.931C143.003 150.013 142.731 150.004 142.487 149.904C142.355 149.825 142.243 149.718 142.157 149.591C142.071 149.464 142.014 149.32 141.99 149.169L144.553 129.955C144.856 129.886 145.166 129.811 145.484 129.73C145.74 129.664 145.99 129.596 146.234 129.525Z" fill="#2B194E"/>
<path d="M111.317 154.032C110.986 156.156 110.616 156.675 110.398 156.945C109.622 157.909 108.087 159.013 100.125 159.071C97.0316 159.091 93.9394 158.948 90.8612 158.643C90.5822 158.617 90.3113 158.535 90.0647 158.402C89.818 158.269 89.6007 158.087 89.4255 157.869C89.2504 157.65 89.1211 157.398 89.0453 157.128C88.9696 156.859 88.9488 156.576 88.9844 156.298C89.1109 155.139 89.5597 154.037 90.28 153.12C91.9035 151.129 94.3452 151.074 96.5889 150.597C96.8981 151.074 97.3777 151.415 97.9299 151.551C99.6184 151.87 100.44 149.226 103.242 148.577C105.336 148.093 107.992 148.843 109.194 150.49C110.262 151.951 109.694 153.441 110.603 153.918C110.824 154.028 111.073 154.068 111.317 154.032Z" fill="#45BEF4"/>
<path d="M111.317 154.057C110.986 156.18 110.616 156.7 110.398 156.969C109.622 157.934 108.087 159.038 100.125 159.096C97.0316 159.116 93.9394 158.973 90.8612 158.667C90.5822 158.641 90.3113 158.559 90.0647 158.426C89.818 158.293 89.6007 158.112 89.4255 157.893C89.2504 157.675 89.1211 157.423 89.0453 157.153C88.9696 156.883 88.9488 156.601 88.9844 156.323C89.0007 156.19 89.0234 156.054 89.0494 155.917C89.1721 156.315 89.4095 156.668 89.7318 156.931C90.0541 157.194 90.447 157.357 90.8612 157.398C93.9394 157.703 97.0316 157.846 100.125 157.826C108.087 157.768 109.622 156.664 110.398 155.7C110.564 155.495 110.817 155.148 111.074 154.063C111.155 154.069 111.237 154.067 111.317 154.057Z" fill="#8ADCF9"/>
<path d="M111.675 150.71C111.568 152.119 111.444 153.197 111.317 154.032C111.073 154.068 110.824 154.028 110.603 153.918C109.694 153.441 110.262 151.951 109.194 150.489C107.993 148.843 105.337 148.093 103.242 148.577C100.44 149.226 99.6186 151.869 97.9301 151.551C97.3779 151.415 96.8983 151.074 96.5891 150.597C98.0373 150.288 99.4043 149.808 100.411 148.515C102.317 146.07 100.723 143.577 102.534 141.927C104.509 140.128 108.473 141.197 111.814 142.564C111.926 145.28 111.879 148 111.675 150.71Z" fill="#279BE2"/>
<path d="M90.5625 156.582C91.6525 156.798 93.2101 157.072 95.0966 157.291C97.4601 157.564 99.5986 157.81 102.194 157.63C104.658 157.453 107.086 156.933 109.407 156.086" stroke="black" stroke-width="2.86736" stroke-linecap="round" stroke-linejoin="round" stroke-dasharray="97.49 97.49"/>
<path d="M94.0339 151.198C94.3266 151.232 94.6095 151.324 94.8652 151.47C95.121 151.616 95.3444 151.813 95.5217 152.048C95.6 152.166 95.6635 152.293 95.7107 152.426" stroke="black" stroke-width="2.86736" stroke-linecap="round" stroke-linejoin="round"/>
<path d="M96.6321 150.584C96.9248 150.617 97.2076 150.71 97.4634 150.856C97.7192 151.002 97.9425 151.199 98.1199 151.434C98.1981 151.552 98.2614 151.679 98.3085 151.812" stroke="black" stroke-width="2.86736" stroke-linecap="round" stroke-linejoin="round"/>
<path d="M137.674 151.297C137.838 153.44 137.597 154.031 137.447 154.343C136.912 155.459 135.67 156.886 127.933 158.767C124.927 159.496 121.884 160.065 118.818 160.473C118.54 160.512 118.258 160.494 117.987 160.421C117.717 160.348 117.464 160.222 117.243 160.049C117.023 159.876 116.839 159.661 116.703 159.416C116.568 159.171 116.483 158.901 116.454 158.622C116.311 157.464 116.495 156.289 116.986 155.231C118.111 152.922 120.475 152.309 122.549 151.329C122.96 151.723 123.505 151.946 124.073 151.952C125.79 151.874 125.984 149.113 128.562 147.839C130.49 146.888 133.247 147.01 134.794 148.337C136.169 149.514 135.957 151.095 136.952 151.351C137.192 151.407 137.444 151.389 137.674 151.297Z" fill="#45BEF4"/>
<path d="M137.67 151.357C137.835 153.5 137.593 154.09 137.443 154.403C136.908 155.519 135.666 156.946 127.929 158.827C124.923 159.555 121.88 160.125 118.814 160.533C118.536 160.571 118.254 160.554 117.984 160.481C117.713 160.408 117.46 160.281 117.239 160.109C117.019 159.936 116.835 159.721 116.699 159.476C116.564 159.23 116.479 158.96 116.45 158.682C116.435 158.549 116.426 158.411 116.42 158.272C116.631 158.631 116.942 158.92 117.317 159.103C117.691 159.285 118.11 159.353 118.523 159.298C121.589 158.89 124.632 158.321 127.638 157.592C135.375 155.711 136.617 154.284 137.152 153.168C137.266 152.931 137.433 152.535 137.434 151.42C137.515 151.407 137.594 151.386 137.67 151.357Z" fill="#8ADCF9"/>
<path d="M137.261 147.982C137.479 149.378 137.606 150.456 137.674 151.297C137.445 151.388 137.193 151.406 136.953 151.35C135.958 151.094 136.17 149.513 134.795 148.335C133.249 147.008 130.491 146.887 128.564 147.838C125.985 149.112 125.791 151.873 124.075 151.95C123.506 151.945 122.961 151.722 122.551 151.328C123.889 150.696 125.11 149.915 125.794 148.427C127.089 145.61 124.965 143.548 126.351 141.527C127.86 139.324 131.964 139.455 135.529 140.02C136.26 142.638 136.838 145.297 137.261 147.982Z" fill="#279BE2"/>
<path d="M118.056 158.536C119.166 158.495 120.745 158.406 122.632 158.186C124.995 157.911 127.134 157.662 129.618 156.89C131.976 156.153 134.22 155.091 136.285 153.734" stroke="black" stroke-width="2.86736" stroke-linecap="round" stroke-linejoin="round" stroke-dasharray="97.49 97.49"/>
<path d="M120.201 152.499C120.494 152.464 120.79 152.49 121.073 152.573C121.355 152.657 121.618 152.797 121.844 152.986C121.947 153.082 122.038 153.192 122.115 153.311" stroke="black" stroke-width="2.86736" stroke-linecap="round" stroke-linejoin="round"/>
<path d="M122.59 151.306C122.882 151.271 123.179 151.297 123.461 151.38C123.744 151.464 124.006 151.605 124.233 151.793C124.336 151.89 124.427 151.999 124.503 152.118" stroke="black" stroke-width="2.86736" stroke-linecap="round" stroke-linejoin="round"/>
<path d="M136.584 77.2713C136.284 79.4283 135.704 81.537 134.86 83.5445C134.272 84.9439 132.107 89.8761 127.622 93.2628C125.085 95.1655 122.146 96.4638 119.031 97.0585C117.461 97.3671 115.864 97.5226 114.264 97.5228C112.582 97.5286 110.904 97.3754 109.251 97.065C106.231 96.7922 103.215 96.5173 100.202 96.2402C100.134 96.2345 100.068 96.2151 100.008 96.1833C99.9487 96.1514 99.8959 96.1078 99.8534 96.055C99.8109 96.0022 99.7796 95.9413 99.7613 95.876C99.743 95.8108 99.7381 95.7425 99.747 95.6753C99.8836 94.6601 100.25 93.6895 100.818 92.8374C101.104 92.4055 101.942 91.149 103.348 90.5872C103.895 90.3625 104.491 90.2831 105.079 90.3567C105.296 90.3833 105.512 90.4223 105.725 90.4736C105.733 90.4776 105.742 90.4799 105.751 90.4801C105.939 90.5385 106.131 90.5905 106.329 90.6424C107.007 90.8535 107.761 91.136 108.673 91.386V91.3665C109.666 91.5695 110.676 91.6847 111.689 91.7107C111.691 91.7105 111.693 91.7107 111.695 91.7112C111.696 91.7118 111.698 91.7127 111.699 91.7139C112.71 91.7431 113.722 91.68 114.722 91.5256C117.05 91.1707 119.267 90.2896 121.204 88.9494C123.14 87.6092 124.746 85.8451 125.898 83.7913C126.979 81.8901 127.679 79.797 127.96 77.6285C128.096 76.7341 128.496 75.9008 129.11 75.2359C129.723 74.571 130.521 74.1049 131.402 73.8977C133.547 73.4626 135.883 74.875 136.584 77.2713Z" fill="#FFD8EB"/>
<path d="M136.319 79.1186C135.991 80.6338 135.524 82.1153 134.922 83.5443C134.335 84.9437 132.169 89.8759 127.685 93.2625C125.147 95.1653 122.209 96.4636 119.093 97.0583C117.523 97.3669 115.927 97.5224 114.327 97.5226C112.645 97.5284 110.966 97.3751 109.313 97.0648L109.209 97.055C110.258 96.857 111.45 97.0583 113.057 97.0485L113.054 97.0323C115.837 97.1375 121.252 96.8855 125.23 93.2184C126.241 92.2871 128.907 89.8298 128.135 87.7634C127.542 86.176 125.252 85.7094 124.696 85.6094C125.066 85.1178 125.41 84.6072 125.726 84.0797C126.744 82.3744 127.472 80.5127 127.883 78.5699C127.883 78.5661 127.883 78.5623 127.883 78.5585C127.883 78.5546 127.882 78.5507 127.88 78.5471C127.964 78.1023 128.007 77.7809 128.023 77.6282C128.131 76.7182 128.525 75.866 129.148 75.1944C129.772 74.5229 130.592 74.0668 131.492 73.8919C132.391 73.7171 133.323 73.8325 134.153 74.2216C134.983 74.6107 135.667 75.2533 136.108 76.0567C136.24 77.0722 136.31 78.0947 136.319 79.1186Z" fill="#FFD2EA"/>
<path d="M133.436 57.6187C133.518 58.8703 133.601 60.1219 133.683 61.3735C132.361 61.2897 131.493 60.1396 131.664 59.1402C131.762 58.7329 131.987 58.3669 132.305 58.0938C132.622 57.8208 133.018 57.6546 133.436 57.6187Z" fill="#FFD8EB"/>
<path d="M141.194 72.9648C138.525 73.7862 135.469 72.0231 134.878 69.0391C134.982 68.9709 135.164 68.8573 135.395 68.7209C135.723 68.5261 135.956 68.406 135.989 68.3865C136.2 68.2663 136.346 67.6624 136.135 65.6687C136.096 65.2953 136.047 64.8765 135.979 64.3992C135.94 64.1232 135.898 63.8309 135.849 63.516L142.087 63.3374C142.025 63.6653 141.976 63.9608 141.937 64.2271C141.749 65.5519 141.83 66.172 142.019 66.4383C142.056 66.5007 142.112 66.5505 142.178 66.5812C142.369 66.6688 142.571 66.5552 143.363 66.5325C143.696 66.523 144.03 66.5327 144.363 66.5617C145.262 69.2934 143.723 72.1855 141.194 72.9648Z" fill="#FFD8EB"/>
<path d="M155.088 81.4003C156.876 86.9607 157.744 92.7757 157.659 98.6159C157.625 101.053 157.433 103.486 157.085 105.899C154.266 106.136 151.295 106.474 148.194 106.941C143.59 107.636 139.33 108.522 135.44 109.5C134.943 106.993 134.448 104.486 133.953 101.98C133.661 100.489 133.366 98.998 133.07 97.5054C132.904 96.6645 132.739 95.8267 132.573 94.9858C132.557 94.9013 132.537 94.8137 132.518 94.713C131.989 92.031 131.458 89.3479 130.927 86.6637C130.848 86.2551 130.69 85.8658 130.463 85.5175C130.164 85.1035 129.792 84.7479 129.365 84.4687C128.958 84.1343 128.509 83.8538 128.031 83.6343C127.439 83.3836 126.803 83.2513 126.16 83.2446C125.92 81.1795 125.576 75.5135 129.427 71.8477C130.781 70.5618 132.414 69.7988 134.878 69.039C135.179 69.6955 135.628 70.2729 136.191 70.7255C136.753 71.1781 137.413 71.4934 138.119 71.6463C140.95 72.1561 144.201 69.4546 144.363 66.5615C146.24 66.0151 148.213 65.8844 150.146 66.1784C152.844 66.5491 155.349 67.7867 157.283 69.7046C159.129 71.5944 160.323 74.0243 160.692 76.6402C159.706 76.9319 158.776 77.3886 157.942 77.991C156.726 78.8773 155.746 80.0479 155.088 81.4003Z" fill="#356AEF"/>
<path d="M159.455 76.8859C158.859 77.064 158.282 77.3022 157.734 77.597C157.25 74.9823 156.041 72.556 154.247 70.5932C152.29 68.4914 149.686 67.103 146.85 66.6481C146.137 66.5214 145.413 66.4562 144.688 66.4533C146.085 66.2206 147.51 66.2118 148.909 66.4273C151.573 66.7659 154.051 67.9746 155.958 69.8657C157.865 71.7568 159.095 74.2246 159.455 76.8859Z" fill="#356AEF"/>
<path d="M156.843 94.4227C156.809 96.8603 156.617 99.2931 156.268 101.706C153.45 101.943 150.479 102.28 147.378 102.748C142.774 103.443 138.514 104.329 134.624 105.307C134.127 102.8 133.631 100.293 133.137 97.7866C132.844 96.2963 132.55 94.8048 132.253 93.3123C132.088 92.4713 131.922 91.6336 131.757 90.7926C131.74 90.7082 131.721 90.6205 131.701 90.5198C131.594 89.9711 131.484 89.4224 131.377 88.8736C136.305 93.9328 138.874 94.4523 140.32 93.8561C142.97 92.7635 142.384 87.7015 145.846 86.4176C147.947 85.6383 149.502 87.006 151.23 85.7091C152.873 84.4752 152.668 82.3371 153.497 82.2377C154.049 82.1728 154.962 83.017 156.502 87.5456C156.761 89.8285 156.875 92.1255 156.843 94.4227Z" fill="#356AEF"/>
<path d="M159.092 102.09C144.665 106.305 139.46 112.461 137.444 117.475C136.927 118.774 136.555 120.126 136.337 121.507C135.349 127.54 136.908 133.726 136.431 138.645C136.194 141.1 135.444 143.243 133.619 144.892C131.294 146.993 128.232 147.386 126.193 147.428C124.312 144.688 122.6 141.837 121.066 138.889C120.956 138.681 120.852 138.473 120.748 138.268C115.452 127.807 113.65 117.975 115.877 110.968C116.432 109.157 117.331 107.471 118.527 106.003L118.53 106C118.585 105.932 118.644 105.863 118.702 105.798C118.907 105.565 119.121 105.331 119.348 105.097C119.384 105.061 119.42 105.022 119.459 104.987C121.699 102.772 124.41 101.61 126.729 100.642C128.207 100.025 129.727 99.5136 131.278 99.1129C139.707 96.9244 147.695 98.2817 153.234 99.9409C153.27 99.9506 153.305 99.9604 153.341 99.9734C155.298 100.565 157.218 101.271 159.092 102.09Z" fill="#482E72"/>
<path opacity="0.39" d="M116.143 110.727C116.154 110.719 116.165 110.709 116.175 110.698C116.154 110.732 116.134 110.766 116.117 110.802C116.127 110.776 116.134 110.753 116.143 110.727Z" fill="#2B194E"/>
<path opacity="0.39" d="M159.28 102.09C157.874 102.499 156.556 102.931 155.322 103.376C150.247 101.512 141.571 99.233 132.161 101.165C140.395 98.5349 148.094 98.983 153.611 99.9993C153.612 100.001 153.613 100.001 153.615 100.002C153.617 100.003 153.619 100.003 153.62 100.003C155.546 100.587 157.436 101.284 159.28 102.09Z" fill="#2B194E"/>
<path opacity="0.39" d="M118.702 105.798C118.642 105.867 118.586 105.935 118.527 106.003L118.53 106C118.585 105.931 118.643 105.863 118.702 105.798Z" fill="#2B194E"/>
<path opacity="0.39" d="M153.559 100.013C153.487 99.9996 153.416 99.9866 153.341 99.9736C147.785 98.98 140.119 98.5839 131.93 101.201C130.333 101.711 128.995 102.259 128.761 102.357C123.95 104.368 119.575 107.292 115.877 110.968C116.432 109.157 117.331 107.472 118.527 106.003L118.53 106C118.585 105.932 118.644 105.864 118.702 105.799C118.907 105.565 119.121 105.331 119.348 105.097C119.384 105.062 119.42 105.023 119.459 104.987C121.699 102.773 124.41 101.61 126.729 100.642C128.207 100.025 129.727 99.5138 131.278 99.1132C140.152 97.4442 150.799 99.4411 153.234 99.9411C153.367 99.9704 153.477 99.9931 153.559 100.013Z" fill="#2B194E"/>
<path d="M160.659 101.853C160.568 103.071 160.478 104.29 160.39 105.509C159.86 112.76 151.843 117.426 145.898 119.209C142.044 120.368 142.171 119.199 138.719 120.225C132.15 122.176 128.209 127.436 123.134 134.395C117.224 142.493 115.169 148.12 110.84 148.36C109.261 148.402 107.686 148.182 106.178 147.711C104.316 147.137 102.584 146.208 101.077 144.973C101.739 131.411 107.301 119.137 116.143 110.727C116.154 110.718 116.165 110.709 116.175 110.698C119.906 107.135 124.263 104.292 129.027 102.311C130.079 101.876 131.123 101.494 132.16 101.165C140.395 98.5349 148.093 98.983 153.61 99.9993C153.611 100.001 153.613 100.001 153.614 100.002C153.616 100.003 153.618 100.003 153.62 100.003C156.009 100.444 158.362 101.062 160.659 101.853Z" fill="#482E72"/>
<path opacity="0.39" d="M115.595 145.214C114.108 147.035 112.682 148.113 110.841 148.214C109.262 148.256 107.686 148.036 106.178 147.565C104.317 146.991 102.584 146.062 101.077 144.827C101.626 133.596 105.532 123.251 111.883 115.25C109.357 119.317 107.578 123.802 106.63 128.495C106.1 131.235 104.669 138.616 108.364 141.993C109.859 143.244 111.595 144.176 113.465 144.73C114.162 144.942 114.874 145.104 115.595 145.214Z" fill="#2B194E"/>
<path opacity="0.39" d="M136.431 138.645C135.411 137.434 135.408 132.55 132.778 131.748C130.476 131.044 126.54 133.576 126.167 133.826C125.556 134.236 122.884 136.025 121.066 138.888C120.955 138.681 120.851 138.473 120.748 138.268C121.491 137.158 122.303 135.979 123.206 134.742C127.612 128.696 131.17 123.933 136.336 121.507C135.349 127.54 136.908 133.726 136.431 138.645Z" fill="#2B194E"/>
<path d="M133.214 60.2446L133.254 60.2771C133.279 60.2956 133.306 60.3144 133.336 60.3343C135.146 61.5379 136.954 61.5087 139.025 61.5743C139.987 61.5769 140.947 61.6721 141.891 61.8584C141.95 61.8558 142.008 61.8449 142.064 61.8259C142.412 61.7285 143.673 61.6171 143.764 61.6071C144.761 61.4964 147.125 58.0679 146.627 54.0052C146.488 52.8756 146.286 51.2319 144.926 50.2504C144.188 49.746 143.305 49.4972 142.412 49.5419C139.828 46.8095 136.147 46.0351 133.591 47.4521C130.981 48.899 130.541 52.0807 130.439 52.8184C129.834 57.2032 133.205 60.2372 133.214 60.2446Z" fill="#505050"/>
<path d="M142.019 66.4383C141.078 66.93 140.008 67.12 138.955 66.9823C137.903 66.8446 136.918 66.386 136.135 65.6687C136.096 65.2953 136.047 64.8764 135.979 64.3991L141.937 64.2271C141.749 65.5518 141.83 66.172 142.019 66.4383Z" fill="#FFD2EA"/>
<path d="M143.265 63.1102C143.217 63.2044 143.165 63.3018 143.109 63.396C142.476 64.4748 141.483 65.2957 140.304 65.7143C139.958 65.837 139.6 65.924 139.236 65.9741L139.194 65.9806C138.817 66.0318 138.436 66.0427 138.057 66.0131C138.012 66.0098 137.969 66.0066 137.924 66.0001C136.738 65.8769 135.627 65.3586 134.771 64.5282C133.915 63.6979 133.362 62.6038 133.203 61.4218L132.713 57.8274C132.535 56.5256 132.842 55.2039 133.574 54.1133C134.307 53.0227 135.415 52.2391 136.687 51.9114C136.891 51.8568 137.098 51.8156 137.307 51.788C138.705 51.5975 140.122 51.9701 141.245 52.8238C142.368 53.6774 143.107 54.9423 143.298 56.3403L143.791 59.9834C143.94 61.0549 143.756 62.1462 143.265 63.1102Z" fill="#FFD8EB"/>
<path d="M143.169 63.2539C143.117 63.3513 143.065 63.4487 143.01 63.5396C142.612 64.2224 142.067 64.8073 141.413 65.2513C140.759 65.6952 140.015 65.9869 139.233 66.1048C140.241 65.6507 141.083 64.8951 141.643 63.9423C141.698 63.8513 141.75 63.7539 141.802 63.6565C142.059 63.1594 142.233 62.6231 142.315 62.0694C142.464 61.0232 142.482 59.9626 142.369 58.912C141.79 58.4876 141.346 57.9048 141.09 57.2336C140.909 56.6893 140.847 56.1125 140.908 55.5421C140.969 54.9717 141.152 54.4211 141.444 53.9275C140.744 53.5519 139.986 53.2965 139.201 53.172C138.064 52.9965 136.902 53.0967 135.813 53.4642C135.94 52.7499 135.949 52.3736 135.84 52.3355C135.829 52.3325 135.818 52.3319 135.807 52.3335C135.796 52.3352 135.785 52.3392 135.775 52.3453C135.769 52.3453 135.762 52.3485 135.756 52.3485C136.197 52.1492 136.663 52.0126 137.142 51.9427L137.207 51.9329C137.9 51.8386 138.604 51.8817 139.28 52.0596C139.956 52.2376 140.59 52.5469 141.146 52.9699C141.702 53.3929 142.17 53.9214 142.522 54.5251C142.874 55.1288 143.104 55.796 143.198 56.4884L143.695 60.1316C143.843 61.2017 143.659 62.2914 143.169 63.2539Z" fill="#FFD2EA"/>
<path d="M131.475 52.7988C131.391 53.2793 131.466 54.1664 132.904 55.5168C133.747 54.5555 134.819 53.8226 136.021 53.3858C137.786 52.7773 139.71 52.8183 141.447 53.5014C141.115 54.6737 141.192 55.9241 141.666 57.0465C141.937 57.6632 142.331 58.2182 142.823 58.6773C143.316 59.1363 143.898 59.4899 144.532 59.7162C145.672 57.8485 146.305 55.7159 146.37 53.5287C146.191 53.0211 145.93 52.5465 145.596 52.1244C144.458 50.6986 142.798 50.3522 141.509 50.0856C137.997 49.3602 131.902 50.3681 131.475 52.7988Z" fill="#505050"/>
<path d="M139.287 59.4469C139.505 59.4469 139.682 59.2697 139.682 59.0511C139.682 58.8325 139.505 58.6553 139.287 58.6553C139.068 58.6553 138.891 58.8325 138.891 59.0511C138.891 59.2697 139.068 59.4469 139.287 59.4469Z" fill="#4C0F38"/>
<path d="M136.392 59.6002C136.611 59.6002 136.788 59.423 136.788 59.2044C136.788 58.9858 136.611 58.8086 136.392 58.8086C136.174 58.8086 135.997 58.9858 135.997 59.2044C135.997 59.423 136.174 59.6002 136.392 59.6002Z" fill="#4C0F38"/>
<path d="M137.789 60.9663C137.876 60.924 137.953 60.8624 138.013 60.7861C138.028 60.7637 138.035 60.7361 138.032 60.7088C138.028 60.6816 138.014 60.6568 137.993 60.6393C137.983 60.6308 137.971 60.6243 137.959 60.6203C137.946 60.6163 137.933 60.6149 137.92 60.6162C137.907 60.6174 137.894 60.6213 137.883 60.6275C137.871 60.6338 137.861 60.6424 137.853 60.6527C137.814 60.7032 137.764 60.7439 137.706 60.7714C137.648 60.799 137.585 60.8127 137.521 60.8114C137.414 60.8029 137.313 60.7543 137.239 60.6754C137.23 60.6655 137.219 60.6576 137.207 60.652C137.195 60.6464 137.182 60.6433 137.169 60.6429C137.156 60.6425 137.143 60.6448 137.13 60.6497C137.118 60.6545 137.107 60.6618 137.098 60.6712C137.079 60.6913 137.069 60.7177 137.07 60.7451C137.07 60.7724 137.081 60.7985 137.1 60.8179C137.21 60.9352 137.36 61.007 137.521 61.0192C137.613 61.0246 137.705 61.0064 137.789 60.9663Z" fill="#4C0F38"/>
<path d="M134.949 57.4194C134.917 57.4194 134.885 57.4097 134.858 57.3916C134.831 57.3735 134.81 57.3477 134.798 57.3176C134.786 57.2876 134.783 57.2546 134.79 57.2229C134.797 57.1912 134.813 57.1623 134.837 57.1399C135.148 56.8353 135.561 56.6572 135.996 56.6402C136.197 56.6351 136.397 56.6681 136.586 56.7376C136.606 56.7448 136.625 56.7559 136.64 56.7702C136.656 56.7845 136.669 56.8019 136.678 56.8212C136.687 56.8405 136.693 56.8614 136.694 56.8827C136.695 56.904 136.691 56.9253 136.684 56.9454C136.677 56.9655 136.666 56.9839 136.652 56.9997C136.637 57.0155 136.62 57.0283 136.601 57.0374C136.581 57.0465 136.56 57.0518 136.539 57.0528C136.518 57.0538 136.496 57.0506 136.476 57.0434C136.325 56.9876 136.165 56.9608 136.003 56.9645C135.65 56.9798 135.314 57.1257 135.062 57.374C135.031 57.4031 134.991 57.4194 134.949 57.4194Z" fill="#4C0F38"/>
<path d="M138.579 57.8268C138.553 57.8179 138.53 57.8013 138.513 57.7791C138.496 57.7568 138.486 57.73 138.484 57.7021C138.482 57.6742 138.489 57.6464 138.504 57.6223C138.518 57.5983 138.539 57.579 138.564 57.5671C138.903 57.4031 139.29 57.3705 139.652 57.4755C139.817 57.5268 139.971 57.6089 140.106 57.7174C140.135 57.7404 140.154 57.7742 140.159 57.8111C140.163 57.8481 140.153 57.8853 140.13 57.9145C140.107 57.9437 140.073 57.9626 140.036 57.967C139.999 57.9714 139.962 57.9609 139.932 57.9379C139.824 57.8506 139.7 57.7845 139.567 57.7431C139.272 57.6584 138.957 57.686 138.682 57.8203C138.65 57.8354 138.613 57.8377 138.579 57.8268Z" fill="#4C0F38"/>
<path d="M144.077 57.105C143.436 56.9621 142.795 57.4716 142.537 57.9729C141.968 59.0727 142.896 60.7949 143.723 60.8244C144.412 60.8488 145.209 59.7078 145.122 58.6554C145.079 58.1411 144.794 57.2644 144.077 57.105Z" fill="#FFD2EA"/>
<path d="M159.618 74.2543C160.604 76.196 161.334 78.2575 161.789 80.3873C162.106 81.8715 163.148 87.1566 161.404 92.4986C160.41 95.5104 158.741 98.2553 156.524 100.524C155.412 101.675 154.191 102.715 152.879 103.63C151.502 104.596 150.037 105.429 148.503 106.119C145.871 107.619 143.239 109.118 140.607 110.615C140.549 110.648 140.484 110.67 140.416 110.678C140.349 110.686 140.28 110.68 140.215 110.661C140.15 110.642 140.09 110.61 140.037 110.566C139.985 110.523 139.942 110.47 139.911 110.409C139.443 109.499 139.189 108.494 139.167 107.47C139.155 106.953 139.124 105.443 139.957 104.178C140.967 102.635 142.512 102.592 144.783 101.79L144.772 101.774C146.834 100.895 151.332 98.4503 153.526 93.0048C156.265 86.2059 153.175 80.2701 152.747 79.4771C152.347 78.6657 152.199 77.7531 152.322 76.8569C152.446 75.9607 152.834 75.1219 153.438 74.4485C154.949 72.8649 157.672 72.689 159.618 74.2543Z" fill="#FFD8EB"/>
<path d="M172.139 104.529C171.672 111.832 168.918 118.215 164.113 122.365C162.747 123.525 161.25 124.52 159.651 125.33C158.044 126.148 156.362 126.81 154.628 127.307C154.04 127.479 153.456 127.629 152.868 127.762C145.585 129.418 138.325 128.317 136.386 125.054C134.987 122.7 136.062 118.696 138.146 116.485C140.637 113.839 143.111 115.397 146.686 113.676C150.423 111.881 152.794 107.741 154.816 103.227C156.839 98.714 158.528 93.8143 160.892 90.5089C161.814 89.4536 163.382 87.1872 165.82 86.541C165.827 86.541 165.833 86.5378 165.84 86.5378C166.655 86.3337 167.518 86.4434 168.256 86.8452C168.995 87.2469 169.555 87.9113 169.827 88.7068C171.637 93.7762 172.423 99.1542 172.139 104.529Z" fill="#DACAFC"/>
<path opacity="0.54" d="M161.118 105.857C160.651 113.159 157.898 119.545 153.09 123.692C151.727 124.853 150.23 125.848 148.632 126.657C149.448 125.244 150.185 123.786 150.84 122.292C152.864 117.776 154.546 112.881 156.911 109.573C157.74 108.623 159.087 106.703 161.118 105.857Z" fill="#ECE6FC"/>
<path d="M114.722 91.5254C112.316 92.2993 109.724 92.2708 107.335 91.4442C106.545 91.167 105.788 90.8021 105.079 90.3564C105.296 90.3831 105.512 90.4221 105.725 90.4733C105.733 90.4774 105.742 90.4796 105.751 90.4798C105.939 90.5383 106.131 90.5902 106.329 90.6422C107.007 90.8532 107.761 91.1357 108.673 91.3857V91.3663C109.666 91.5693 110.676 91.6845 111.69 91.7104C111.691 91.7102 111.693 91.7104 111.695 91.711C111.696 91.7115 111.698 91.7125 111.699 91.7137C112.711 91.7428 113.722 91.6798 114.722 91.5254Z" fill="#FFE1F5"/>
<path d="M158.414 75.1382C160.389 78.7197 161.397 82.754 161.339 86.8436" stroke="#FFE1F5" stroke-width="1.91157" stroke-miterlimit="10"/>
<path d="M161.219 87.9053V88.4722" stroke="#FFE1F5" stroke-width="1.91157" stroke-miterlimit="10"/>
<path d="M127.291 88.6167C126.25 90.4882 124.785 92.0898 123.014 93.2927C121.242 94.4956 119.213 95.2664 117.09 95.5432" stroke="#FFE1F5" stroke-width="1.91157" stroke-miterlimit="10"/>
<path d="M116.091 95.6265H115.737" stroke="#FFE1F5" stroke-width="1.91157" stroke-miterlimit="10"/>
<path d="M136.856 66.8638C136.782 67.5051 136.783 68.1529 136.858 68.7941" stroke="#FFE1F5" stroke-width="1.91157" stroke-miterlimit="10"/>
<path d="M143.872 66.938C143.705 67.6522 143.348 68.308 142.838 68.8359C142.329 69.3608 141.732 69.7915 141.073 70.108" stroke="#FFE1F5" stroke-width="1.91157" stroke-miterlimit="10"/>
<path d="M131.032 87.1982C131.318 85.0725 131.604 82.9467 131.889 80.8208C131.222 82.1741 130.555 83.5271 129.887 84.8795C130.11 85.1091 130.306 85.3635 130.472 85.6377C130.759 86.1161 130.95 86.6463 131.032 87.1982Z" fill="#356AEF"/>
<path opacity="0.18" d="M79.4939 97.7808H32.9514V150.58H79.4939V97.7808Z" fill="#AAC0F9"/>
<path opacity="0.18" d="M79.494 119.091H55.437V150.58H79.494V119.091Z" fill="#AAC0F9"/>
<path opacity="0.18" d="M43.6242 98.0586H33.239V150.567H43.6242V98.0586Z" fill="#AAC0F9"/>
<path d="M69.8361 90.4525V91.339L57.0007 91.3195C54.8099 91.3145 52.6184 91.3106 50.4262 91.3078C49.3407 91.3058 48.6361 90.0713 49.12 89.0209L49.1307 88.9979L56.2887 73.4805L65.213 73.5129L57.7907 89.6051L69.8361 90.4525Z" fill="#45BEF4"/>
<path d="M71.7786 90.4525V91.339L57.9042 91.3195C55.5363 91.3145 53.1674 91.3106 50.7975 91.3078C50.5284 91.3073 50.2638 91.2381 50.0289 91.1067C49.794 90.9754 49.5965 90.7863 49.4551 90.5573C49.3137 90.3283 49.2331 90.067 49.2209 89.7982C49.2087 89.5293 49.2653 89.2618 49.3854 89.0209L49.3971 88.9979L57.1347 73.4805L66.7815 73.5129L58.7582 89.6051L71.7786 90.4525Z" stroke="#191D38" stroke-width="3.82314" stroke-linecap="round" stroke-linejoin="round" stroke-dasharray="412.9 412.9"/>
<path d="M56.7647 91.3195L56.755 91.3389L47.1082 91.3032C50.3259 91.3097 53.5448 91.3151 56.7647 91.3195Z" fill="#45BEF4"/>
<path d="M32.9498 97.9082H28.5952V157.425H32.9498V97.9082Z" fill="#FF5F91"/>
<path d="M30.3268 157.425H28.5952V97.9077L32.9498 98.3571C31.8951 98.4438 30.8584 98.6743 30.4259 99.2429C30.3077 99.4179 30.2367 99.6204 30.2196 99.8308C30.2026 100.041 30.24 100.253 30.3285 100.444C30.7866 101.708 30.7489 122.247 30.3268 157.425Z" fill="#FF76A7"/>
<path d="M86.3145 93.3359H23.498V97.8415H86.3145V93.3359Z" fill="#97B1FE"/>
<path d="M86.4136 96.5103H23.5972V97.7805H86.4136V96.5103Z" fill="#86A6F7"/>
<path d="M32.9498 98.0586H28.5952V157.425H32.9498V98.0586Z" stroke="#2B2B47" stroke-width="3.82314" stroke-linecap="round" stroke-linejoin="round" stroke-dasharray="315.41 315.41"/>
<path d="M84.7584 97.8193H80.1792V157.336H84.7584V97.8193Z" fill="#FF5F91"/>
<path d="M82.0004 157.337H80.1792V97.8193L84.7575 98.2687C83.6486 98.3551 82.5583 98.5856 82.1037 99.1542C81.9795 99.3264 81.9043 99.529 81.8859 99.7405C81.8676 99.952 81.9068 100.165 81.9995 100.356C82.4839 101.619 82.4437 122.159 82.0004 157.337Z" fill="#FF76A7"/>
<path d="M84.7584 97.9707H80.1792V157.337H84.7584V97.9707Z" stroke="#2B2B47" stroke-width="3.82314" stroke-linecap="round" stroke-linejoin="round" stroke-dasharray="315.41 315.41"/>
<path d="M23.3782 97.7349H104.228" stroke="#191D38" stroke-width="3.82314" stroke-linecap="round" stroke-linejoin="round"/>
<path d="M23.498 98.1049V92.6675" stroke="#191D38" stroke-width="3.82314" stroke-linecap="round" stroke-linejoin="round"/>
<path d="M86.4136 98.1051V92.6621" stroke="#231F20" stroke-width="3.82314" stroke-linecap="round" stroke-linejoin="round"/>
<path d="M20.5291 92.3374H49.2916" stroke="#191D38" stroke-width="3.82314" stroke-linecap="round" stroke-linejoin="round"/>
<path d="M32.9497 150.579H74.4314" stroke="#191D38" stroke-width="3.82314" stroke-linecap="round" stroke-linejoin="round"/>
<path d="M77.2019 83.3924L43.6234 82.4092C41.9161 73.118 40.2087 63.8265 38.5012 54.5347L71.1887 59.0386L77.2019 83.3924Z" fill="#97B1FE"/>
<path d="M77.2016 83.2937L45.3928 82.3615C43.732 73.3248 42.0714 64.288 40.4109 55.251L71.3931 59.8779C73.3298 67.6833 75.266 75.4885 77.2016 83.2937Z" fill="#AAC0F9"/>
<path d="M77.2017 82.9687C75.1314 74.5826 73.0608 66.1966 70.9902 57.8106C60.1049 56.2748 49.2197 54.7389 38.3345 53.2031C40.0973 62.797 41.8604 72.3909 43.6232 81.9848C54.8162 82.3128 66.009 82.6407 77.2017 82.9687ZM77.2017 83.6181C77.1954 83.6181 77.189 83.618 77.1827 83.6178L76.1167 83.5866L43.6042 82.634C43.2981 82.625 43.0398 82.4034 42.9845 82.1022C42.1017 77.298 41.2189 72.4938 40.3361 67.6896C39.456 62.8999 38.5758 58.1102 37.6958 53.3205C37.658 53.1152 37.7213 52.9042 37.8658 52.7536C37.9892 52.625 38.1588 52.5537 38.3344 52.5537C38.3646 52.5537 38.3949 52.5558 38.4252 52.5601L59.2178 55.4938L71.0809 57.1676C71.3434 57.2046 71.5571 57.3975 71.6206 57.6549C73.6913 66.041 75.7619 74.427 77.8321 82.813C77.8808 83.0101 77.8345 83.2186 77.707 83.3765C77.5836 83.5295 77.3976 83.6181 77.2017 83.6181Z" fill="#191D38"/>
<path d="M52.7392 82.7368C51.6845 84.9253 50.6298 87.1137 49.575 89.3019L57.7899 89.6052L60.7365 83.2167L52.7392 82.7368Z" fill="#279BE2"/>
<path d="M53.7246 82.7953C52.6758 84.9772 51.6249 87.1581 50.5718 89.338C50.2406 89.3282 49.9061 89.3152 49.575 89.3022C50.6302 87.1138 51.6844 84.9253 52.7375 82.7368L53.7246 82.7953Z" fill="#5BC1F4"/>
<path d="M42.7822 59.6587L56.7034 60.9575" stroke="#E1E6FF" stroke-width="1.43368" stroke-miterlimit="10"/>
<path d="M43.5354 62.0269L53.179 62.9259" stroke="#E1E6FF" stroke-width="1.43368" stroke-miterlimit="10"/>
<path d="M44.2485 64.4629L50.335 65.0305" stroke="#E1E6FF" stroke-width="1.43368" stroke-miterlimit="10"/>
<path d="M44.9009 66.894L58.8221 68.1928" stroke="#E1E6FF" stroke-width="1.43368" stroke-miterlimit="10"/>
<path d="M45.6741 69.3359L51.3992 69.8697" stroke="#E1E6FF" stroke-width="1.43368" stroke-miterlimit="10"/>
<path d="M60.7834 60.6191L63.6109 71.1527" stroke="#E1E6FF" stroke-width="1.43368" stroke-miterlimit="10"/>
<path d="M63.6733 71.1582L70.9651 71.8381" stroke="#E1E6FF" stroke-width="1.43368" stroke-miterlimit="10"/>
<path d="M70.9448 71.7644L68.1228 61.2539L68.2553 61.7468" stroke="#E1E6FF" stroke-width="1.43368" stroke-miterlimit="10"/>
<path d="M60.7043 60.5396L68.5517 61.2714L67.4539 61.1691" stroke="#E1E6FF" stroke-width="1.43368" stroke-miterlimit="10"/>
<path d="M46.5857 72.2935L71.7759 74.6427" stroke="#E1E6FF" stroke-width="1.43368" stroke-miterlimit="10"/>
<path d="M46.5056 72.2134L47.5736 76.191" stroke="#E1E6FF" stroke-width="1.43368" stroke-miterlimit="10"/>
<path d="M47.533 76.2598L72.8439 78.6203" stroke="#E1E6FF" stroke-width="1.43368" stroke-miterlimit="10"/>
<path d="M72.9634 78.8472L71.7373 74.2803" stroke="#E1E6FF" stroke-width="1.43368" stroke-miterlimit="10"/>
<path d="M55.0217 73.2959L55.9708 76.8316" stroke="#E1E6FF" stroke-width="1.43368" stroke-miterlimit="10"/>
<path d="M61.9905 74.3047L62.8409 77.4721" stroke="#E1E6FF" stroke-width="1.43368" stroke-miterlimit="10"/>
<path d="M26.7076 91.2954C26.5056 82.7182 26.5178 74.1396 26.744 65.5597C26.9661 57.139 27.7466 47.8847 33.7036 41.9291C38.1802 37.4537 44.6755 35.8088 50.8341 34.3457" stroke="#191D38" stroke-width="1.91157" stroke-miterlimit="10"/>
<path d="M63.6084 28.5814L60.9946 33.4811L53.9291 46.7354C50.1854 44.5599 47.8995 40.9103 47.643 37.2606C47.5128 35.5356 47.873 33.8089 48.682 32.2798C51.2845 27.3963 57.8856 25.7955 63.6084 28.5814Z" fill="#6BD4F9"/>
<path d="M60.993 33.4814L53.9275 46.7357C50.1838 44.5602 47.8979 40.9105 47.6414 37.2609C50.1935 33.0983 55.7978 31.5787 60.993 33.4814Z" fill="#45BEF4"/>
<path d="M29.6473 86.0371H23.5972V92.0872H29.6473V86.0371Z" fill="#6BD4F9"/>
</svg>
