<svg width="56" height="36" viewBox="0 0 56 36" fill="none" xmlns="http://www.w3.org/2000/svg">
<path d="M4.66667 22.0869C5.31482 22.0869 5.76852 21.8276 6.02778 21.3091C6.28704 20.7906 6.28704 20.272 6.02778 19.7535C5.76852 19.235 5.31482 18.9757 4.66667 18.9757C4.01852 18.9757 3.56481 19.235 3.30556 19.7535C3.0463 20.272 3.0463 20.7906 3.30556 21.3091C3.56481 21.8276 4.01852 22.0869 4.66667 22.0869ZM40.4688 20.6771C40.3067 20.4665 39.9948 20.0614 39.533 19.4619C39.0712 18.8623 38.735 18.4248 38.5243 18.1494C38.3137 17.8739 38.0058 17.4769 37.6007 16.9584C37.1956 16.4399 36.8513 16.0105 36.5677 15.6702C36.2841 15.3299 35.956 14.9491 35.5833 14.5278C35.2106 14.1065 34.8461 13.7095 34.4896 13.3369L31.4514 16.7396C30.1065 18.2628 28.4172 19.0082 26.3837 18.9757C24.3501 18.9433 22.6852 18.1494 21.3889 16.5938C20.4653 15.4757 20.0075 14.1957 20.0156 12.7535C20.0237 11.3114 20.4977 10.0394 21.4375 8.93755L25.7396 3.93061C25.3831 3.75237 24.9699 3.61869 24.5 3.52957C24.0301 3.44045 23.6453 3.39184 23.3455 3.38373C23.0457 3.37563 22.588 3.37968 21.9722 3.39589C21.3565 3.41209 20.9595 3.42019 20.7812 3.42019C19.2905 3.42019 18.0104 3.95492 16.941 5.02436L13.1007 8.86464H9.33333V22.0869C9.41435 22.0869 9.58449 22.0828 9.84375 22.0747C10.103 22.0666 10.2812 22.0666 10.3785 22.0747C10.4757 22.0828 10.6337 22.099 10.8524 22.1233C11.0712 22.1476 11.2373 22.1841 11.3507 22.2327C11.4641 22.2813 11.6059 22.3502 11.776 22.4393C11.9462 22.5284 12.0961 22.6378 12.2257 22.7674L19.4444 29.8646C21.3079 31.6632 23.147 32.5626 24.9618 32.5626C26.2257 32.5626 27.2384 32.1818 28 31.4202C28.9236 31.7443 29.8351 31.6795 30.7344 31.2257C31.6337 30.772 32.2211 30.0834 32.4965 29.1598C33.6956 29.257 34.7245 28.9005 35.5833 28.0903C35.9074 27.7987 36.1991 27.43 36.4583 26.9844C36.7176 26.5388 36.831 26.1297 36.7986 25.757C36.9606 25.919 37.309 26.0001 37.8438 26.0001C38.5405 26.0001 39.1644 25.8299 39.7153 25.4896C40.2662 25.1494 40.6672 24.72 40.9184 24.2014C41.1696 23.6829 41.2668 23.1036 41.2101 22.4636C41.1534 21.8235 40.9062 21.2281 40.4688 20.6771ZM44.3333 22.0869H46.6667V9.64242H44.4062L40.5903 5.26742C39.5208 4.03593 38.1516 3.42019 36.4826 3.42019H32.4236C30.9815 3.42019 29.7986 3.96302 28.875 5.04867L23.7951 10.9549C23.3414 11.4896 23.1146 12.0973 23.1146 12.7778C23.1146 13.4584 23.3333 14.066 23.7708 14.6007C24.4676 15.4271 25.3588 15.8484 26.4444 15.8646C27.5301 15.8808 28.4294 15.4839 29.1424 14.6737L33.8333 9.37505C34.2384 9.00237 34.6719 8.82818 35.1337 8.85248C35.5955 8.87679 35.9763 9.09554 36.276 9.50873C36.5758 9.92193 36.6447 10.3797 36.4826 10.882C36.7419 11.1899 37.1956 11.7003 37.8438 12.4132C38.4919 13.1262 38.978 13.6771 39.3021 14.066C39.772 14.6494 40.4404 15.5041 41.3073 16.6303C42.1742 17.7564 42.6968 18.441 42.875 18.6841C43.7176 19.7535 44.2037 20.8878 44.3333 22.0869ZM51.3333 22.0869C51.9815 22.0869 52.4352 21.8276 52.6944 21.3091C52.9537 20.7906 52.9537 20.272 52.6944 19.7535C52.4352 19.235 51.9815 18.9757 51.3333 18.9757C50.6852 18.9757 50.2315 19.235 49.9722 19.7535C49.713 20.272 49.713 20.7906 49.9722 21.3091C50.2315 21.8276 50.6852 22.0869 51.3333 22.0869ZM56 8.08686V23.6424C56 24.0637 55.8461 24.4283 55.5382 24.7362C55.2303 25.044 54.8657 25.198 54.4444 25.198H43.8958C43.4583 26.2512 42.794 27.1141 41.9028 27.7865C41.0116 28.459 39.9988 28.8762 38.8646 29.0382C38.3299 29.816 37.6777 30.4763 36.908 31.0192C36.1383 31.562 35.3079 31.9306 34.4167 32.1251C33.7361 32.9839 32.8895 33.6441 31.8767 34.106C30.864 34.5678 29.8229 34.7663 28.7535 34.7014C27.7813 35.2524 26.7604 35.5724 25.691 35.6615C24.6215 35.7506 23.5885 35.6372 22.592 35.3212C21.5955 35.0053 20.6476 34.5718 19.7483 34.0209C18.849 33.47 18.0104 32.8137 17.2326 32.0521L10.2569 25.198H1.55556C1.13426 25.198 0.769676 25.044 0.461806 24.7362C0.153935 24.4283 0 24.0637 0 23.6424V7.30908C0 6.88779 0.153935 6.5232 0.461806 6.21533C0.769676 5.90746 1.13426 5.75353 1.55556 5.75353H11.7882C12.015 5.52667 12.3958 5.13779 12.9306 4.58686C13.4653 4.03593 13.8501 3.64705 14.0851 3.42019C14.32 3.19334 14.6765 2.86927 15.1545 2.44797C15.6325 2.02667 16.0417 1.72286 16.3819 1.53651C16.7222 1.35017 17.1354 1.14357 17.6215 0.916721C18.1076 0.689869 18.61 0.531883 19.1285 0.442763C19.647 0.353642 20.1979 0.309082 20.7812 0.309082H23.625C25.2292 0.309082 26.6956 0.762786 28.0243 1.67019C29.353 0.762786 30.8194 0.309082 32.4236 0.309082H36.4826C37.0498 0.309082 37.5926 0.357693 38.1111 0.454915C38.6296 0.552138 39.0874 0.669614 39.4844 0.807346C39.8814 0.945077 40.2986 1.15978 40.7361 1.45144C41.1736 1.74311 41.5341 1.99427 41.8177 2.20492C42.1013 2.41556 42.4497 2.73559 42.8628 3.16498C43.276 3.59438 43.592 3.93466 43.8108 4.18582C44.0295 4.43698 44.3617 4.82586 44.8073 5.35248C45.2529 5.87911 45.5891 6.27205 45.816 6.5313H54.4444C54.8657 6.5313 55.2303 6.68524 55.5382 6.99311C55.8461 7.30098 56 7.66556 56 8.08686Z" fill="black"/>
</svg>
