<svg width="58" height="56" viewBox="0 0 58 56" fill="none" xmlns="http://www.w3.org/2000/svg">
<path d="M34.4 56C33.2889 56 32.3449 55.6116 31.568 54.8347C30.7911 54.0578 30.4018 53.1129 30.4 52V33.3333C30.4 32.2222 30.7894 31.2782 31.568 30.5013C32.3467 29.7244 33.2907 29.3351 34.4 29.3333H53.0667C54.1778 29.3333 55.1227 29.7227 55.9013 30.5013C56.68 31.28 57.0685 32.224 57.0667 33.3333V52C57.0667 53.1111 56.6782 54.056 55.9013 54.8347C55.1245 55.6133 54.1796 56.0018 53.0667 56H34.4ZM20.4 53.3333L19.3334 44.8C18.7556 44.5778 18.2116 44.3111 17.7014 44C17.1911 43.6889 16.6907 43.3556 16.2 43L8.26668 46.3333L0.93335 33.6667L7.80002 28.4667C7.75557 28.1556 7.73335 27.856 7.73335 27.568V25.768C7.73335 25.4782 7.75557 25.1778 7.80002 24.8667L0.93335 19.6667L8.26668 7L16.2 10.3333C16.6889 9.97778 17.2 9.64444 17.7334 9.33333C18.2667 9.02222 18.8 8.75556 19.3334 8.53333L20.4 0H35.0667L36.1334 8.53333C36.7111 8.75556 37.256 9.02222 37.768 9.33333C38.28 9.64444 38.7796 9.97778 39.2667 10.3333L47.2 7L54.5333 19.6667L48.8667 24H36.8C36.1778 22.0889 35.0667 20.5004 33.4667 19.2347C31.8667 17.9689 30 17.3351 27.8667 17.3333C25.2889 17.3333 23.0889 18.2444 21.2667 20.0667C19.4445 21.8889 18.5334 24.0889 18.5334 26.6667C18.5334 28.8 19.1334 30.6667 20.3334 32.2667C21.5334 33.8667 23.1111 34.9778 25.0667 35.6V53.3333H20.4ZM35.7334 50.6667H51.7333V48.4667C50.6222 47.4444 49.3778 46.6667 48 46.1333C46.6222 45.6 45.2 45.3333 43.7333 45.3333C42.2667 45.3333 40.8445 45.6 39.4667 46.1333C38.0889 46.6667 36.8445 47.4444 35.7334 48.4667V50.6667ZM43.7333 42.6667C44.8445 42.6667 45.7893 42.2782 46.568 41.5013C47.3467 40.7244 47.7351 39.7796 47.7333 38.6667C47.7316 37.5538 47.3431 36.6098 46.568 35.8347C45.7929 35.0596 44.848 34.6702 43.7333 34.6667C42.6187 34.6631 41.6747 35.0524 40.9014 35.8347C40.128 36.6169 39.7387 37.5609 39.7334 38.6667C39.728 39.7724 40.1174 40.7173 40.9014 41.5013C41.6854 42.2853 42.6293 42.6738 43.7333 42.6667Z" fill="black"/>
</svg>
