<svg width="1329" height="550" viewBox="0 0 1329 550" fill="none" xmlns="http://www.w3.org/2000/svg">
<g opacity="0.2">
<path d="M509.059 550C504.315 550 499.698 549.551 495.261 548.654C485.955 546.773 477.358 542.91 469.707 537.173C461.484 531.009 454.272 522.609 448.27 512.208C436.206 491.302 430.17 466.266 424.333 442.054C423.186 437.3 422 432.384 420.796 427.614C412.582 395.103 402.17 366.625 388.967 340.553C362.627 288.545 325.586 244.159 281.845 212.195C231.258 175.231 176.87 156.818 128.697 160.348C100.383 162.424 62.9727 182.166 46.2531 215.88C36.3307 235.89 35.5306 258.095 43.9409 280.092L43.7739 280.185C39.3641 268.648 37.4428 257.083 38.0649 245.81C38.6356 235.469 41.3369 225.361 46.0953 215.765C53.6632 200.504 66.1437 186.978 82.188 176.648C97.0137 167.103 113.526 161.236 128.686 160.125C153.896 158.279 180.709 162.376 208.378 172.305C233.46 181.307 258.21 194.663 281.94 212.003C325.707 243.984 362.771 288.394 389.124 340.434C402.335 366.523 412.753 395.017 420.972 427.545C422.178 432.315 423.364 437.233 424.509 441.988C430.341 466.182 436.373 491.201 448.42 512.075C460.071 532.266 475.842 544.497 495.292 548.428C522.228 553.873 554.936 542.485 582.786 517.963C622.919 482.626 650.772 431.19 677.71 381.451C682.431 372.732 687.313 363.717 692.146 355.011C704.695 332.406 721.69 303.113 741.887 277.017C762.532 250.343 783.51 230.746 806.023 217.102C819.803 208.751 834.407 203.125 849.429 200.38C863.304 197.843 877.99 197.686 893.08 199.908C918.964 203.722 946.851 214.495 978.334 232.84C1040.32 268.965 1102.25 312.813 1162.38 363.168C1219.54 411.028 1275.6 465.186 1329 524.132L1328.88 524.296C1218.18 402.104 1100.21 304.112 978.253 233.039C909.348 192.885 854.648 187.883 806.106 217.299C756.722 247.225 722.224 301.23 692.299 355.133C687.467 363.836 682.586 372.851 677.864 381.57C650.919 431.328 623.057 482.779 582.896 518.14C569.918 529.568 555.318 538.481 540.676 543.915C532.941 546.786 525.252 548.663 517.82 549.495C514.858 549.834 511.935 550 509.059 550Z" fill="white"/>
<path d="M513.696 537.603C501.599 537.603 490.394 534.825 480.38 529.342C469.214 523.229 459.578 513.756 451.738 501.188C451.044 500.074 450.356 498.923 449.692 497.764C437.756 476.949 431.453 452.238 425.359 428.34C424.125 423.51 422.852 418.514 421.56 413.667C413.865 384.804 404.6 359.365 393.232 335.901C391.831 333.012 390.382 330.117 388.919 327.297C362.193 275.736 324.85 231.912 280.929 200.564C229.978 164.231 175.435 146.579 127.348 150.862C99.2399 153.392 62.0021 173.456 45.211 206.912C35.1565 226.946 34.0187 249.195 41.917 271.256L41.7482 271.344C37.6082 259.782 35.9071 248.194 36.6943 236.908C37.4173 226.543 40.2287 216.412 45.0532 206.797C52.6982 191.562 65.142 178.02 81.0357 167.637C95.7257 158.04 112.166 152.004 127.332 150.64C152.511 148.398 179.353 152.103 207.111 161.652C232.253 170.302 257.121 183.33 281.021 200.374C324.968 231.74 362.33 275.59 389.073 327.18C390.536 330.002 391.987 332.9 393.388 335.79C404.763 359.27 414.034 384.722 421.732 413.601C423.026 418.448 424.3 423.444 425.533 428.276C431.625 452.158 437.923 476.851 449.842 497.637C450.505 498.793 451.193 499.944 451.885 501.055C468.085 527.034 490.345 537.603 513.753 537.603C513.882 537.603 514.008 537.603 514.137 537.603C513.99 537.601 513.843 537.603 513.696 537.603ZM518.69 537.448C540.452 536.1 562.908 526.013 582.173 511.009C623.729 478.509 653.595 428.313 682.479 379.771C683.669 377.77 684.858 375.773 686.047 373.777C688.658 369.394 691.754 364.206 694.914 358.976C709.09 335.52 726.247 308.229 746.005 283.664C767.028 257.526 788.031 238.13 810.211 224.365C823.841 215.916 838.244 209.964 853.022 206.675C866.714 203.627 881.184 202.766 896.024 204.114C921.662 206.445 949.229 215.281 980.301 231.129C1010.59 246.556 1035.5 261.079 1058.67 276.832C1091.49 299.169 1122.76 324.907 1149.02 347.136C1210.07 398.966 1269.97 457.818 1327.05 522.06L1326.93 522.222C1269.85 457.989 1209.96 399.14 1148.92 347.318C1122.66 325.091 1091.4 299.357 1058.58 277.026C1035.41 261.278 1010.52 246.76 980.231 231.337C912.544 196.812 858.544 194.658 810.296 224.564C760.22 255.636 724.558 310.305 695.063 359.109C691.901 364.339 688.807 369.525 686.195 373.91C685.006 375.904 683.817 377.903 682.628 379.904C653.734 428.462 623.857 478.675 582.272 511.199C571.961 519.229 560.989 525.608 549.659 530.157C539.113 534.387 528.717 536.833 518.69 537.448Z" fill="white"/>
<path d="M518.81 525.489C517.355 525.489 515.908 525.452 514.473 525.374C502.387 524.73 491.203 521.386 481.231 515.429C470.325 508.915 460.876 499.267 453.148 486.75C452.462 485.635 451.777 484.481 451.117 483.322C439.315 462.608 432.749 438.228 426.402 414.653C425.079 409.739 423.71 404.657 422.322 399.725C414.248 370.96 404.738 345.725 393.247 322.577C391.825 319.715 390.353 316.844 388.868 314.046C361.755 262.934 324.112 219.673 280.01 188.94C228.696 153.237 173.999 136.344 125.996 141.38C98.9691 144.26 61.8395 163.18 44.1859 197.913C33.9865 217.98 32.5019 240.289 39.8918 262.427L39.7211 262.509C35.8491 250.911 34.3718 239.297 35.3261 227.991C36.2032 217.592 39.1321 207.435 44.0299 197.798C51.7557 182.598 64.1591 169.052 79.9006 158.62C94.4529 148.976 110.818 142.777 125.98 141.161C151.13 138.525 178.001 141.836 205.845 151.004C231.05 159.304 256.033 172.003 280.102 188.749C324.229 219.502 361.892 262.788 389.023 313.929C390.507 316.729 391.981 319.6 393.403 322.466C404.9 345.627 414.415 370.878 422.493 399.659C423.88 404.593 425.249 409.675 426.572 414.588C432.918 438.15 439.479 462.513 451.265 483.202C451.926 484.362 452.607 485.513 453.293 486.624C484.693 537.484 540.341 532.023 581.559 504.052C624.849 474.417 657.02 425.162 688.132 377.529L688.452 377.04C691.465 372.423 694.581 367.651 697.682 362.938C730.407 313.225 766.377 262.135 814.402 231.623C827.884 223.075 842.089 216.798 856.62 212.966C870.135 209.403 884.385 207.838 898.972 208.316C924.405 209.148 951.652 216.049 982.272 229.414C1014.45 243.41 1038.67 256.274 1060.79 271.128C1092.31 292.335 1122.85 319.133 1149.79 342.776C1209.77 395.701 1268.75 455.322 1325.11 519.978L1324.98 520.137C1268.63 455.488 1209.65 395.874 1149.68 342.953C1122.74 319.314 1092.21 292.521 1060.7 271.321C1038.59 256.471 1014.38 243.611 982.21 229.62C915.836 200.651 862.542 201.348 814.486 231.816C766.493 262.308 730.538 313.376 697.825 363.071C694.724 367.784 691.608 372.558 688.595 377.173L688.275 377.662C672.771 401.399 656.739 425.943 639.427 447.867C619.971 472.505 601.072 490.945 581.647 504.241C561.325 518.03 539.188 525.489 518.81 525.489Z" fill="white"/>
<path d="M1323.04 518.05C1267.42 452.984 1209.35 392.605 1150.45 338.588C1147.95 336.317 1145.45 334.035 1142.94 331.747C1117.43 308.457 1091.05 284.375 1062.83 265.614C1035.46 247.464 1007.72 236.366 984.197 227.904C919.259 204.402 866.666 207.95 818.684 239.067C769.428 271.104 731.262 324.294 700.596 367.035C698.755 369.601 696.918 372.17 695.078 374.742C693.72 376.641 692.36 378.541 691 380.437C673.539 404.798 657.656 426.578 640.107 446.453C620.059 469.156 600.735 485.783 581.028 497.286C562.56 508.067 542.831 513.771 524.48 513.774C521.136 513.774 517.842 513.585 514.605 513.202C502.787 511.806 491.846 507.881 482.087 501.538C471.438 494.616 462.176 484.784 454.555 472.314C453.874 471.196 453.195 470.041 452.538 468.879C440.876 448.274 434.055 424.236 427.46 400.991C426.04 395.984 424.57 390.805 423.083 385.778C414.623 357.104 404.868 332.07 393.263 309.245C391.819 306.405 390.323 303.561 388.818 300.788C361.316 250.125 323.373 207.426 279.094 177.306C227.416 142.234 172.567 126.105 124.649 131.886C91.8906 135.917 58.3927 159.348 43.1871 188.864C32.828 208.973 30.9911 231.353 37.8708 253.584L37.6984 253.662C34.0961 242.021 32.8408 230.372 33.9676 219.037C35.0044 208.601 38.0543 198.411 43.0311 188.747C50.8376 173.591 63.2007 160.045 78.7843 149.576C93.1972 139.892 109.478 133.531 124.631 131.667C149.751 128.635 176.65 131.554 204.58 140.342C229.846 148.292 254.948 160.663 279.186 177.111C323.493 207.249 361.455 249.972 388.974 300.666C390.481 303.442 391.977 306.288 393.421 309.128C405.033 331.966 414.792 357.013 423.258 385.701C424.744 390.73 426.214 395.907 427.634 400.916C434.226 424.148 441.043 448.17 452.691 468.75C453.348 469.91 454.025 471.064 454.704 472.179C487.484 525.819 543.2 519.119 580.949 497.084C625.988 470.793 660.453 422.714 690.862 380.291C692.222 378.392 693.58 376.493 694.94 374.596C696.779 372.024 698.618 369.454 700.458 366.889C717.963 342.493 735.25 318.785 754.254 296.938C776.108 271.814 797.157 252.821 818.6 238.872C831.941 230.22 845.945 223.617 860.223 219.25C873.568 215.166 887.599 212.9 901.928 212.51C927.197 211.824 954.127 216.791 984.252 227.692C1007.79 236.158 1035.54 247.261 1062.92 265.422C1091.15 284.189 1117.54 308.278 1143.06 331.572C1145.56 333.86 1148.07 336.143 1150.56 338.413C1209.47 392.434 1267.55 452.82 1323.17 517.893L1323.04 518.05Z" fill="white"/>
<path d="M1321.09 515.965C1265.16 449.239 1208 388.091 1151.21 334.224C1147.81 331.001 1144.34 327.678 1140.98 324.467C1116.9 301.465 1092 277.68 1064.96 259.908C1037.96 242.225 1009.98 232.938 986.18 226.187C922.822 208.043 870.931 214.44 822.879 246.318C777.045 276.834 741.138 322.723 706.412 367.099L702.599 371.971C699.588 375.82 696.473 379.798 693.403 383.7C658.643 427.822 623.846 469.175 580.407 490.327C569.866 495.46 559.043 499.017 548.234 500.905C536.627 502.93 525.353 502.959 514.722 500.989C503.175 498.849 492.482 494.353 482.94 487.626C472.555 480.307 463.479 470.295 455.966 457.874C455.289 456.749 454.615 455.592 453.964 454.432C442.445 433.949 435.378 410.265 428.544 387.361C427.019 382.25 425.441 376.965 423.848 371.832C414.995 343.245 404.998 318.413 393.282 295.916C391.818 293.105 390.3 290.283 388.772 287.532C360.882 237.318 322.64 195.181 278.18 165.674C226.136 131.238 171.133 115.868 123.298 122.4C90.8384 126.926 57.4929 150.521 42.2102 179.78C31.6786 199.94 29.4783 222.406 35.8461 244.751L35.6717 244.824C32.3392 233.132 31.3097 221.439 32.6108 210.071C33.8109 199.59 36.9875 189.36 42.0524 179.665C49.9433 164.561 62.2623 151.028 77.6808 140.528C91.9505 130.808 108.143 124.294 123.276 122.183C148.367 118.756 175.293 121.282 203.311 129.688C228.639 137.289 253.857 149.33 278.266 165.482C322.752 195.004 361.016 237.167 388.922 287.41C390.451 290.163 391.97 292.988 393.435 295.799C405.157 318.307 415.16 343.152 424.017 371.754C425.61 376.887 427.188 382.175 428.713 387.286C435.543 410.177 442.606 433.849 454.112 454.308C454.762 455.463 455.435 456.619 456.111 457.743C488.102 510.637 541.257 509.152 580.336 490.123C623.739 468.99 658.522 427.652 693.267 383.549C696.338 379.647 699.452 375.67 702.463 371.821L706.277 366.949C723.323 345.167 740.947 322.641 760.089 301.686C781.769 277.954 802.278 259.78 822.787 246.123C835.992 237.362 849.798 230.434 863.818 225.534C876.999 220.925 890.812 217.955 904.872 216.704C930.032 214.467 956.639 217.499 986.22 225.97C1010.03 232.725 1038.02 242.015 1065.04 259.713C1092.1 277.491 1117 301.283 1141.09 324.292C1144.45 327.504 1147.93 330.824 1151.32 334.049C1208.12 387.921 1265.28 449.073 1321.22 515.805L1321.09 515.965Z" fill="white"/>
<path d="M1319.15 513.88C1263.69 446.412 1207.45 384.499 1151.98 329.861C1147.81 325.755 1143.53 321.485 1139.4 317.357C1116.62 294.603 1093.07 271.075 1067.08 254.206C1040.21 236.826 1012.11 229.422 988.164 224.473C926.561 211.545 875.373 220.792 827.072 253.573C784.92 282.301 750.311 323.015 716.841 362.387C713.32 366.53 709.677 370.813 706.128 374.963C701.96 379.837 698.776 383.54 695.805 386.967C679.893 405.307 660.948 426.425 641.066 443.991C619.998 462.604 599.953 475.486 579.785 483.374C569.18 487.522 558.403 490.138 547.75 491.148C536.312 492.232 525.237 491.436 514.836 488.777C503.566 485.898 493.123 480.831 483.791 473.719C473.672 466.008 464.785 455.817 457.375 443.435C456.707 442.313 456.037 441.153 455.388 439.989C444.021 419.643 436.717 396.325 429.652 373.775C428.013 368.544 426.32 363.137 424.611 357.885C415.36 329.378 405.119 304.749 393.299 282.587C391.813 279.8 390.273 277.004 388.722 274.275C360.445 224.511 321.903 182.936 277.262 154.042C224.857 120.239 169.7 105.633 121.949 112.911C94.7783 117.143 59.2912 136.638 41.2595 170.65C30.5389 190.871 27.9661 213.439 33.8219 235.912L33.6476 235.979C30.5848 224.228 29.7847 212.483 31.2674 201.071C32.6364 190.537 35.9451 180.263 41.1054 170.53C49.0807 155.488 61.3539 141.977 76.6017 131.455C90.7282 121.707 106.824 115.044 121.927 112.691C146.989 108.871 173.944 111.003 202.047 119.028C227.436 126.28 252.771 137.993 277.348 153.848C322.015 182.757 360.579 224.356 388.873 274.149C390.423 276.878 391.965 279.678 393.451 282.467C405.277 304.641 415.524 329.283 424.78 357.803C426.49 363.057 428.184 368.465 429.823 373.695C436.882 396.234 444.184 419.539 455.538 439.863C456.188 441.025 456.856 442.183 457.524 443.303C484.138 487.779 529.823 502.68 579.728 483.16C624.923 465.483 661.79 425.865 695.679 386.803C698.65 383.377 701.832 379.674 705.999 374.8C709.548 370.649 713.191 366.366 716.713 362.223C733.19 342.84 750.227 322.798 768.4 304.03C788.949 282.806 808.113 266.236 826.984 253.376C840.062 244.5 853.666 237.247 867.42 231.82C880.447 226.678 894.042 223.006 907.825 220.901C932.922 217.072 959.211 218.167 988.195 224.25C1012.15 229.203 1040.27 236.609 1067.17 254.005C1093.17 270.884 1116.73 294.419 1139.52 317.18C1143.65 321.308 1147.92 325.578 1152.09 329.684C1207.57 384.328 1263.82 446.246 1319.28 513.718L1319.15 513.88Z" fill="white"/>
<path d="M1317.2 511.795C1262.23 443.582 1206.9 380.9 1152.74 325.496C1148.13 320.784 1143.4 315.837 1138.83 311.054C1117.02 288.269 1094.48 264.709 1069.21 248.5C1042.31 231.329 1014.15 225.85 990.148 222.756C931.338 214.971 879.366 227.424 831.265 260.825C792.965 287.54 760.133 323.28 728.382 357.845C721.968 364.826 715.338 372.046 708.892 378.928C704.948 383.14 701.454 386.839 698.206 390.234C683.101 406.007 663.009 426.231 641.538 442.758C619.965 459.363 599.56 470.375 579.159 476.42C556.909 483.014 534.702 483.062 514.942 476.564C503.955 472.949 493.76 467.314 484.637 459.813C474.788 451.714 466.09 441.346 458.781 429.002C458.118 427.878 457.454 426.716 456.808 425.551C445.603 405.361 438.072 382.425 430.79 360.247C429.028 354.881 427.208 349.335 425.371 343.945C415.715 315.514 405.229 291.084 393.314 269.264C391.805 266.502 390.244 263.731 388.671 261.026C360.007 211.711 321.165 170.696 276.345 142.42C223.578 109.252 168.267 95.4071 120.598 103.431C88.2932 108.986 56.0377 132.316 40.3366 161.48C29.4105 181.775 26.4578 204.46 31.7979 227.083L31.6217 227.143C28.8306 215.321 28.2617 203.515 29.9298 192.054C31.4713 181.46 34.9213 171.133 40.1825 161.358C48.2422 146.387 60.4676 132.907 75.5374 122.375C89.5153 112.608 105.51 105.799 120.573 103.209C145.605 98.9951 172.59 100.735 200.779 108.378C226.23 115.279 251.683 126.665 276.429 142.221C321.275 170.515 360.139 211.552 388.821 260.898C390.394 263.602 391.956 266.376 393.466 269.14C405.387 290.973 415.878 315.414 425.54 343.859C427.377 349.248 429.197 354.797 430.959 360.163C438.237 382.33 445.764 405.254 456.958 425.425C457.604 426.589 458.267 427.747 458.929 428.871C485.087 473.06 530.015 490.754 579.115 476.205C623.877 462.94 662.748 426.966 698.085 390.068C701.331 386.673 704.827 382.976 708.769 378.764C715.213 371.883 721.845 364.665 728.257 357.684C760.015 323.112 792.853 287.363 831.171 260.636C844.134 251.634 857.54 244.058 871.015 238.113C883.903 232.429 897.279 228.053 910.77 225.107C935.862 219.628 961.832 218.79 990.164 222.539C1014.18 225.636 1042.37 231.116 1069.29 248.308C1094.59 264.528 1117.14 288.096 1138.94 310.89C1143.52 315.673 1148.25 320.618 1152.86 325.33C1207.02 380.739 1262.36 443.425 1317.33 511.642L1317.2 511.795Z" fill="white"/>
<path d="M1315.25 509.709C1260.77 440.744 1206.35 377.299 1153.51 321.133C1148.65 315.971 1143.65 310.507 1138.82 305.221C1117.82 282.243 1096.1 258.482 1071.33 242.796C1044.33 225.77 1016.14 222.244 992.13 221.04C935.543 217.995 884.294 233.38 835.458 268.078C801.21 292.527 770.679 323.471 741.153 353.394C731.001 363.684 721.411 373.403 711.657 382.892C707.69 386.754 704.076 390.225 700.608 393.499C678.229 414.603 659.61 429.863 642.012 441.519C619.934 456.143 599.171 465.284 578.537 469.463C570.533 471.083 562.557 471.891 554.727 471.891C540.846 471.891 527.415 469.359 515.05 464.343C492.673 455.266 474.216 438.517 460.19 414.561C459.53 413.426 458.871 412.264 458.232 411.104C447.198 391.088 439.455 368.56 431.968 346.771C430.071 341.251 428.111 335.545 426.134 329.996C416.065 301.631 405.334 277.405 393.332 255.933C391.802 253.195 390.218 250.448 388.623 247.767C359.572 198.902 320.429 158.449 275.429 130.786C222.301 98.2555 166.837 85.1698 119.251 93.9393C86.8122 100.042 55.4871 122.928 39.4502 152.247C28.302 172.626 24.9585 195.447 29.7774 218.243L29.5994 218.298C27.0835 206.394 26.7495 194.517 28.6085 182.996C30.3298 172.332 33.9248 161.947 39.2979 152.126C47.4421 137.236 59.6143 123.801 74.5006 113.269C88.328 103.486 104.211 96.5445 119.224 93.7202C144.227 89.1119 171.241 90.4576 199.515 97.7199C225.028 104.274 250.596 115.332 275.513 130.587C320.539 158.268 359.704 198.742 388.774 247.637C390.368 250.319 391.952 253.066 393.484 255.806C405.493 277.29 416.23 301.529 426.303 329.905C428.28 335.454 430.241 341.162 432.137 346.683C439.621 368.46 447.359 390.98 458.384 410.978C459.023 412.136 459.68 413.298 460.341 414.431C486.531 459.168 529.601 479.147 578.506 469.242C625.061 459.812 666.295 425.573 700.494 393.322C703.961 390.048 707.574 386.579 711.542 382.717C721.293 373.228 730.883 363.511 741.035 353.221C770.566 323.291 801.103 292.343 835.365 267.885C848.231 258.744 861.436 250.842 874.615 244.396C887.38 238.154 900.538 233.075 913.721 229.301C938.864 222.105 964.515 219.329 992.137 220.817C1016.17 222.021 1044.38 225.551 1071.42 242.597C1096.21 258.294 1117.93 282.066 1138.94 305.053C1143.78 310.338 1148.77 315.803 1153.63 320.963C1206.48 377.133 1260.9 440.585 1315.38 509.555L1315.25 509.709Z" fill="white"/>
<path d="M1313.31 507.625C1258.56 436.919 1206.54 374.49 1154.27 316.769C1149.28 311.262 1144.38 305.637 1139.18 299.683C1118.86 276.407 1097.84 252.341 1073.46 237.092C1046.11 220.073 1016.69 218.657 994.114 219.325C940.103 220.715 889.577 239.036 839.652 275.334C809.697 297.218 782.041 323.497 755.294 348.914C741.237 362.272 727.96 374.886 714.421 386.859C710.402 390.416 706.668 393.656 703.009 396.766C680.325 416.014 661.093 429.839 642.482 440.277C619.892 452.947 598.771 460.218 577.914 462.507C567.197 463.682 556.553 463.461 546.279 461.849C535.4 460.143 524.929 456.869 515.157 452.121C493.498 441.596 475.479 424.104 461.6 400.126C460.945 398.988 460.291 397.824 459.657 396.664C448.807 376.854 440.871 354.755 433.194 333.385C431.146 327.683 429.029 321.786 426.898 316.054C416.407 287.751 405.433 263.726 393.349 242.608C391.795 239.895 390.189 237.172 388.576 234.516C359.137 186.1 319.696 146.21 274.515 119.159C232.815 94.2961 189.811 81.3233 150.377 81.3233C139.229 81.3233 128.374 82.3592 117.905 84.4553C85.8566 90.9981 54.7278 113.967 38.5973 142.971C27.2124 163.445 23.4633 186.421 27.7556 209.411L27.5757 209.46C25.3351 197.463 25.2415 185.504 27.2968 173.917C29.2016 163.175 32.9526 152.721 38.4432 142.847C46.6718 128.051 58.7871 114.671 73.4825 104.15C87.354 94.2186 102.705 87.3327 117.872 84.2383C142.845 79.236 169.889 80.19 198.249 87.0693C223.823 93.2713 249.51 104 274.596 118.958C319.802 146.024 359.268 185.936 388.725 234.381C390.339 237.037 391.947 239.762 393.501 242.478C405.591 263.607 416.57 287.642 427.067 315.959C429.198 321.691 431.317 327.588 433.365 333.292C441.038 354.653 448.971 376.743 459.811 396.538C460.446 397.696 461.099 398.86 461.752 399.995C487.706 444.832 530.038 467.533 577.899 462.283C626.329 456.969 670.144 424.378 702.906 396.58C706.565 393.47 710.298 390.23 714.317 386.675C727.854 374.707 741.129 362.091 755.184 348.735C781.934 323.316 809.595 297.029 839.56 275.139C865.264 256.451 890.488 242.832 916.674 233.5C941.929 224.5 967.261 219.79 994.114 219.1C1009.43 218.646 1021.93 219.434 1033.45 221.576C1048.32 224.343 1061.43 229.352 1073.55 236.891C1097.95 252.152 1118.98 276.232 1139.31 299.52C1144.5 305.474 1149.41 311.096 1154.4 316.603C1206.67 374.326 1258.69 436.76 1313.44 507.47L1313.31 507.625Z" fill="white"/>
<path d="M1311.36 505.539C1257.11 434.059 1205.98 370.886 1155.04 312.403C1150 306.617 1145.03 300.657 1139.77 294.346C1120.05 270.703 1099.67 246.251 1075.58 231.386C1048.01 214.446 1018.62 215.124 996.097 217.605C945.128 223.026 895.325 244.281 843.845 282.582C818.48 301.544 794.33 323.245 770.975 344.232C752.512 360.822 735.075 376.493 717.187 390.816C713.144 394.056 709.18 397.155 705.409 400.024C682.681 417.297 662.251 430.053 642.951 439.022C619.842 449.761 598.364 455.166 577.29 455.543C566.567 455.733 555.966 454.564 545.787 452.065C535.116 449.445 524.847 445.348 515.264 439.885C494.347 427.961 476.765 409.725 463.007 385.681C462.362 384.545 461.712 383.379 461.079 382.212C450.433 362.643 442.324 341.012 434.481 320.093C432.262 314.174 429.967 308.052 427.66 302.1C416.739 273.85 405.521 250.029 393.366 229.272C391.789 226.582 390.161 223.884 388.526 221.253C358.701 173.286 318.958 133.958 273.598 107.521C219.749 76.2672 163.975 64.7043 116.554 74.9613C84.9207 81.9225 53.9993 104.951 37.7789 133.626C26.1371 154.208 21.9714 177.356 25.7297 200.57L25.5498 200.612C23.59 188.512 23.7405 176.46 25.9995 164.793C28.097 153.963 32.0076 143.433 37.6266 133.499C45.9359 118.809 57.9907 105.495 72.4879 94.9971C86.1998 85.0678 101.426 78.0645 116.521 74.7422C141.467 69.3481 168.539 69.9059 196.983 76.4045C222.619 82.2612 248.422 92.662 273.677 107.319C319.064 133.77 358.829 173.122 388.671 221.118C390.308 223.749 391.938 226.45 393.514 229.141C405.677 249.91 416.899 273.742 427.825 302.002C430.134 307.954 432.427 314.077 434.648 319.997C442.487 340.908 450.593 362.53 461.231 382.086C461.864 383.25 462.514 384.417 463.158 385.55C489.385 431.385 529.917 456.167 577.286 455.317C615.722 454.631 656.403 436.999 705.31 399.831C709.079 396.962 713.041 393.866 717.084 390.625C734.967 376.305 752.404 360.638 770.863 344.048C794.222 323.059 818.376 301.354 843.748 282.387C869.703 263.075 894.521 248.458 919.62 237.694C945.047 226.791 970.057 220.144 996.081 217.377C1018.63 214.891 1048.05 214.216 1075.67 231.182C1099.78 246.065 1120.17 270.528 1139.9 294.182C1145.15 300.493 1150.12 306.451 1155.16 312.235C1206.11 370.72 1257.24 433.898 1311.5 505.382L1311.36 505.539Z" fill="white"/>
<path d="M1309.42 503.454C1255.67 431.197 1205.43 367.276 1155.8 308.041C1150.76 302.027 1145.79 295.778 1140.52 289.163C1121.37 265.096 1101.56 240.211 1077.71 225.682C1049.88 208.804 1020.54 211.582 998.083 215.887C950.126 224.907 902.45 248.405 848.04 289.835C827.633 305.444 807.691 322.567 788.406 339.126C764.983 359.237 742.859 378.235 719.952 394.78C715.825 397.764 711.74 400.628 707.811 403.288C684.676 418.946 663.614 430.226 643.423 437.769C632.113 441.994 620.948 445.056 610.239 446.868C598.815 448.801 587.52 449.378 576.668 448.586C554.648 446.977 534.025 439.934 515.373 427.654C495.23 414.391 478.086 395.413 464.42 371.243C463.778 370.098 463.134 368.93 462.504 367.77C452.086 348.489 443.832 327.371 435.851 306.95C433.435 300.767 430.937 294.375 428.425 288.155C417.064 259.952 405.602 236.333 393.384 215.945C391.785 213.278 390.134 210.604 388.478 207.999C358.265 160.479 318.224 121.713 272.684 95.8938C218.475 65.28 162.549 54.4785 115.207 65.477C64.5159 77.4361 15.1206 129.108 23.7089 191.737L23.5272 191.772C21.3783 176.106 22.6372 160.672 27.2671 145.895C31.4952 132.4 38.4337 119.699 47.89 108.149C56.6819 97.41 67.23 88.138 79.2389 80.5902C90.6605 73.4121 103.086 68.1088 115.17 65.2579C140.087 59.4698 167.188 59.6358 195.718 65.7537C221.417 71.2629 247.337 81.3361 272.761 95.6946C318.326 121.532 358.392 160.32 388.623 207.866C390.28 210.473 391.932 213.147 393.532 215.817C405.756 236.213 417.223 259.846 428.59 288.06C431.102 294.28 433.6 300.672 436.017 306.857C443.996 327.271 452.246 348.38 462.658 367.65C463.286 368.81 463.928 369.979 464.571 371.121C490.836 417.572 530.651 445.002 576.678 448.367C615.645 451.211 658.509 436.406 707.721 403.098C711.648 400.438 715.731 397.576 719.858 394.592C742.76 378.051 764.881 359.056 788.3 338.947C807.587 322.386 827.531 305.261 847.941 289.649C902.373 248.201 950.071 224.695 998.053 215.668C1013.14 212.775 1025.63 211.85 1037.37 212.76C1052.37 213.922 1065.59 218.083 1077.79 225.483C1101.67 240.027 1121.49 264.928 1140.66 289.008C1145.92 295.621 1150.89 301.87 1155.93 307.881C1205.56 367.121 1255.81 431.045 1309.55 503.306L1309.42 503.454Z" fill="white"/>
<path d="M1307.47 501.37C1254.24 428.325 1204.88 363.66 1156.57 303.676C1151.57 297.47 1146.63 290.969 1141.4 284.083C1122.76 259.556 1103.49 234.193 1079.84 219.976C1051.4 202.957 1020.69 208.51 1000.07 214.168C944.089 229.334 893.923 264.594 852.235 297.089C837.251 308.816 822.306 321.237 807.851 333.25C778.855 357.347 751.468 380.108 722.719 398.745C718.491 401.487 714.285 404.114 710.215 406.556C686.628 420.675 664.936 430.476 643.898 436.514C620.049 443.36 597.222 445.082 576.047 441.629C554.294 438.081 533.917 429.263 515.485 415.418C496.153 400.898 479.448 381.179 465.831 356.807C465.196 355.663 464.556 354.492 463.93 353.327C453.771 334.401 445.414 313.862 437.33 293.999C434.682 287.489 431.943 280.761 429.19 274.211C417.216 245.654 405.844 222.906 393.404 202.618C391.783 199.975 390.112 197.328 388.432 194.745C357.829 147.677 317.486 109.473 271.766 84.2647C217.198 54.2928 161.117 44.2506 113.856 55.9905C62.9836 68.7951 14.5976 119.766 21.6848 182.903L21.5031 182.932C19.7451 167.268 21.2664 151.849 26.023 137.106C30.3831 123.597 37.362 110.883 46.7687 99.3203C55.5405 88.5366 66.0336 79.196 77.958 71.553C89.3118 64.2753 101.713 58.8193 113.819 55.7714C138.709 49.5893 165.837 49.3636 194.452 55.0985C220.213 60.2602 246.251 70.0059 271.843 84.0633C317.59 109.285 357.955 147.511 388.574 194.608C390.253 197.193 391.927 199.843 393.549 202.485C405.996 222.782 417.372 245.543 429.351 274.112C432.104 280.661 434.844 287.392 437.492 293.902C445.574 313.758 453.929 334.29 464.081 353.208C464.706 354.372 465.345 355.541 465.98 356.685C492.449 404.061 531.546 434.15 576.069 441.41C616.001 447.922 659.852 436.454 710.132 406.356C714.201 403.917 718.407 401.292 722.631 398.55C751.372 379.917 778.756 357.161 807.747 333.066C822.202 321.054 837.148 308.63 852.134 296.901C880.167 275.052 903.487 258.91 925.519 246.101C951.457 231.023 975.827 220.507 1000.02 213.951C1014.77 209.905 1027.63 208.072 1039.33 208.351C1054.39 208.71 1067.67 212.446 1079.92 219.777C1103.6 234.011 1122.89 259.39 1141.53 283.932C1146.76 290.816 1151.7 297.317 1156.7 303.519C1205.01 363.505 1254.37 428.174 1307.61 501.221L1307.47 501.37Z" fill="white"/>
<path d="M1305.53 499.282C1252.81 425.447 1204.33 360.036 1157.33 299.309C1152.4 292.941 1147.53 286.214 1142.36 279.091C1124.22 254.071 1105.46 228.198 1081.96 214.269C1053.21 197.29 1022.59 205.097 1002.05 212.448C951.334 230.445 906.095 264.713 856.43 304.34C847.473 311.513 838.413 318.917 829.65 326.08C795.951 353.624 761.106 382.104 725.485 402.706C721.157 405.212 716.827 407.604 712.615 409.818C688.869 422.284 665.908 430.841 644.37 435.252C619.97 440.25 596.775 440.053 575.421 434.67C553.973 429.263 533.844 418.667 515.592 403.178C497.122 387.502 480.852 367.044 467.235 342.371C466.606 341.224 465.971 340.051 465.349 338.887C455.496 320.403 447.086 300.533 438.953 281.318C436.022 274.395 432.992 267.236 429.948 260.271C417.506 231.742 405.897 209.19 393.415 189.295C391.776 186.684 390.08 184.058 388.377 181.495C357.392 134.87 316.752 97.2283 270.849 72.6351C215.922 43.3051 159.69 34.0242 112.506 46.5035C63.2479 59.6733 13.9682 108.855 19.6588 174.067L19.4772 174.089C18.11 158.425 19.8937 143.024 24.7769 128.314C29.2674 114.79 36.2885 102.065 45.6438 90.4885C62.9047 69.1334 87.2601 53.022 112.465 46.2844C137.325 39.7105 164.483 39.0908 193.184 44.4428C219.007 49.2592 245.161 58.6751 270.922 72.4314C316.851 97.038 357.515 134.704 388.521 181.351C390.225 183.917 391.921 186.542 393.562 189.156C406.049 209.061 417.664 231.622 430.109 260.162C433.154 267.13 436.185 274.288 439.116 281.212C447.247 300.422 455.656 320.287 465.503 338.763C466.123 339.927 466.758 341.098 467.388 342.245C494.63 391.608 531.999 423.492 575.456 434.451C615.696 444.597 661.816 436.242 712.538 409.614C716.748 407.401 721.075 405.01 725.4 402.507C761.008 381.911 795.85 353.436 829.542 325.896C838.305 318.734 847.364 311.33 856.323 304.156C878.064 286.81 903.361 266.913 928.467 250.301C954.729 232.926 978.779 220.476 1002 212.237C1016.61 207.007 1029.46 204.293 1041.29 203.944C1056.2 203.501 1069.91 206.91 1082.04 214.072C1092.56 220.312 1103.16 229.624 1114.42 242.541C1124.37 253.947 1133.58 266.656 1142.5 278.945C1147.66 286.066 1152.54 292.792 1157.46 299.158C1204.47 359.888 1252.94 425.301 1305.66 499.138L1305.53 499.282Z" fill="white"/>
<path d="M1303.58 497.197C1251.38 422.565 1203.79 356.408 1158.1 294.946C1153.26 288.439 1148.46 281.509 1143.39 274.173C1125.72 248.633 1107.45 222.222 1084.09 208.568C1062.26 195.847 1036.08 196.556 1004.03 210.732C959.236 230.443 919.19 263.412 876.792 298.32C871.513 302.667 866.055 307.16 860.623 311.598C858.496 313.34 856.368 315.086 854.241 316.83C813.843 349.963 772.071 384.224 728.25 406.673C723.821 408.944 719.369 411.102 715.018 413.085C690.75 424.137 667.142 431.171 644.849 433.991C619.886 437.147 596.318 435.036 574.803 427.714C553.689 420.527 533.807 408.154 515.711 390.938C498.172 374.251 482.338 353.055 468.65 327.935C468.026 326.786 467.397 325.611 466.779 324.444C457.3 306.54 448.918 287.472 440.808 269.032C437.525 261.564 434.129 253.841 430.717 246.324C417.794 217.815 405.951 195.458 393.439 175.966C391.776 173.377 390.061 170.778 388.336 168.239C356.957 122.065 316.016 84.9839 269.933 61.006C214.651 32.3201 158.262 23.7985 111.157 37.017C62.8042 50.6981 13.5942 100.283 17.6369 165.234L17.4534 165.251C16.479 149.585 18.5233 134.201 23.5331 119.529C28.1557 105.989 35.2172 93.2488 44.5229 81.6638C61.7104 60.2645 85.9814 43.914 111.115 36.8023C135.947 29.8345 163.133 28.8207 191.918 33.7921C217.804 38.2587 244.077 47.347 270.007 60.8024C316.115 84.7958 357.082 121.897 388.473 168.095C390.198 170.634 391.918 173.237 393.58 175.827C406.097 195.329 417.949 217.694 430.875 246.214C434.288 253.73 437.683 261.455 440.968 268.923C449.074 287.359 457.456 306.423 466.931 324.321C467.549 325.487 468.177 326.66 468.801 327.809C496.634 378.886 533.305 413.355 574.851 427.494C615.864 441.452 663 436.532 714.952 412.873C719.299 410.889 723.749 408.734 728.177 406.465C771.983 384.025 813.748 349.77 854.136 316.642C856.265 314.896 858.392 313.152 860.519 311.41C865.951 306.972 871.408 302.479 876.688 298.134C919.095 263.219 959.151 230.242 1003.97 210.522C1018.45 204.117 1031.3 200.524 1043.26 199.535C1058.22 198.298 1071.99 201.27 1084.17 208.366C1094.63 214.482 1105.09 223.836 1116.15 236.964C1125.9 248.546 1134.86 261.502 1143.53 274.03C1148.6 281.363 1153.4 288.291 1158.23 294.796C1203.93 356.26 1251.52 422.419 1303.72 497.053L1303.58 497.197Z" fill="white"/>
<path d="M1301.63 495.112C1253.99 425.567 1205.95 356.751 1158.86 290.581C1154.07 283.884 1149.32 276.688 1144.29 269.071C1127.93 244.294 1109.38 216.213 1086.22 202.864C1064.13 190.165 1037.9 192.177 1006.02 209.013C968.107 228.964 934.56 258.301 899.041 289.36C887.919 299.085 876.417 309.145 864.815 318.849C844.565 335.824 822.659 353.785 799.697 370.145C775.105 387.666 752.637 400.909 731.011 410.635C726.467 412.678 721.894 414.601 717.415 416.348C692.633 426.005 668.383 431.501 645.336 432.683C619.822 433.989 595.882 429.978 574.176 420.752C534.094 403.505 499.062 367.42 470.055 313.497C469.436 312.346 468.812 311.168 468.198 310.002C459.2 292.888 450.964 274.833 443 257.371C439.251 249.153 435.375 240.653 431.475 232.382C418.061 203.88 405.979 181.719 393.452 162.642C391.766 160.074 390.028 157.5 388.283 154.988C356.523 109.258 315.281 72.7415 269.018 49.3767C213.378 21.3327 156.837 13.5747 109.809 27.5302C61.1621 42.048 13.1854 90.9756 15.6132 156.4L15.4297 156.409C14.848 140.738 17.1565 125.372 22.2893 110.737C27.0458 97.1798 34.1476 84.4261 43.4002 72.8322C52.1169 61.909 62.4485 52.3581 74.1069 44.443C85.4258 36.7602 97.4218 30.9965 109.763 27.3133C134.568 19.9537 161.782 18.546 190.652 23.1344C216.6 27.258 242.989 36.0165 269.088 49.1708C315.378 72.5489 356.644 109.088 388.422 154.839C390.167 157.354 391.909 159.93 393.595 162.498C406.127 181.586 418.215 203.756 431.635 232.267C435.535 240.54 439.41 249.04 443.159 257.261C451.124 274.72 459.358 292.773 468.352 309.88C468.965 311.049 469.59 312.224 470.207 313.375C499.192 367.256 534.193 403.313 574.237 420.542C615.484 438.072 664.975 436.549 717.358 416.135C721.834 414.389 726.407 412.468 730.947 410.427C779.3 388.684 823.54 353.175 864.709 318.665C876.31 308.962 887.811 298.904 898.933 289.178C934.459 258.113 968.014 228.77 1005.94 208.809C1037.87 191.947 1064.16 189.935 1086.29 202.662C1096.67 208.641 1106.97 218.012 1117.79 231.308C1127.33 243.033 1136.02 256.2 1144.43 268.932C1149.46 276.548 1154.21 283.742 1159 290.435C1206.1 356.608 1254.13 425.423 1301.78 494.97L1301.63 495.112Z" fill="white"/>
<path d="M1299.69 493.027C1252.77 423.096 1205.65 353.515 1159.63 286.216C1154.98 279.446 1150.37 272.124 1145.49 264.372C1129.54 239.018 1111.45 210.279 1088.34 197.155C1065.99 184.479 1039.71 187.795 1008 207.288C974.77 227.683 944.241 256.479 914.718 284.331C899.914 298.295 884.606 312.735 869.008 326.098C844.388 347.209 823.674 363.314 803.816 376.783C779.33 393.39 756.419 405.759 733.776 414.594C729.128 416.409 724.43 418.096 719.814 419.608C695.767 427.481 672.153 431.465 649.563 431.467C648.308 431.467 647.06 431.454 645.812 431.43C619.695 430.916 595.384 424.98 573.554 413.789C563.017 408.357 552.698 401.462 542.885 393.295C533.662 385.619 524.599 376.577 515.946 366.422C500.379 348.152 485.827 326.115 471.462 299.056C470.845 297.892 470.23 296.726 469.619 295.555C461.284 279.589 453.399 262.9 445.774 246.76C441.372 237.444 436.821 227.809 432.237 218.431C418.123 189.537 406.167 168.217 393.466 149.308C391.758 146.765 389.998 144.215 388.231 141.727C356.086 96.4515 314.544 60.4968 268.102 37.7451C212.106 10.3452 155.41 3.34862 108.46 18.0413C60.725 33.0217 12.8106 82.3211 13.5905 147.561L13.407 147.564C13.0437 117.176 23.0284 88.2796 42.2804 64.0006C50.9825 53.0265 61.259 43.407 72.8274 35.4033C84.0839 27.6165 96.0561 21.7023 108.414 17.8244C133.189 10.0708 160.433 8.27125 189.387 12.4767C215.398 16.255 241.904 24.6859 268.17 37.537C314.642 60.3042 356.207 96.2811 388.372 141.583C390.139 144.073 391.903 146.625 393.611 149.168C406.318 168.089 418.279 189.415 432.396 218.32C436.98 227.7 441.533 237.335 445.934 246.652C453.559 262.79 461.442 279.477 469.775 295.438C470.386 296.608 470.999 297.775 471.616 298.937C502.141 356.437 535.508 393.939 573.625 413.585C626.419 440.651 682.237 431.684 719.767 419.395C724.378 417.884 729.073 416.199 733.719 414.384C785.797 394.061 833.319 356.43 868.901 325.918C884.498 312.561 899.804 298.12 914.606 284.158C944.137 256.302 974.671 227.497 1007.92 207.093C1022.11 198.37 1034.95 193.014 1047.18 190.721C1062.26 187.892 1076.14 189.99 1088.42 196.958C1098.77 202.835 1108.97 212.282 1119.61 225.837C1128.99 237.78 1137.45 251.231 1145.64 264.242C1150.52 271.991 1155.13 279.311 1159.77 286.077C1205.79 353.376 1252.91 422.957 1299.83 492.887L1299.69 493.027Z" fill="white"/>
<path d="M1297.74 490.942L1160.39 281.854C1155.91 275.026 1151.45 267.595 1146.74 259.731C1131.17 233.776 1113.53 204.36 1090.47 191.454C1068.16 178.974 1041.09 183.724 1009.98 205.573C980.082 226.576 952.81 254.507 926.436 281.52C909.245 299.127 891.469 317.333 873.204 333.356C818.307 381.515 770.33 409.96 722.219 422.875C702.261 428.231 682.572 430.927 663.478 430.927C657.69 430.927 651.961 430.68 646.292 430.184C619.559 427.846 594.877 419.989 572.934 406.832C552.598 394.636 533.994 377.42 516.065 354.197C501.747 335.653 488.023 313.546 472.874 284.623C464.878 269.359 457.136 253.5 449.649 238.163C432.704 203.457 415.182 167.569 393.489 135.983C360.215 87.5382 316.54 49.5471 267.185 26.1159C210.835 -0.637628 153.985 -6.87503 107.112 8.55469C61.7297 23.493 12.4738 70.5989 11.5673 138.728L11.3838 138.723C11.7893 108.271 22.0861 79.3795 41.1601 55.1714C58.4063 33.283 81.8111 16.6514 107.064 8.33998C131.812 0.194617 159.085 -1.99888 188.122 1.82369C214.195 5.25448 240.819 13.36 267.253 25.9101C291.675 37.5039 314.868 52.7654 336.192 71.2718C357.694 89.9331 377.019 111.656 393.629 135.837C415.331 167.434 432.858 203.331 449.807 238.046C457.294 253.381 465.036 269.237 473.03 284.499C495.132 326.7 526.472 378.717 573.017 406.629C626.396 438.637 683.594 433.01 722.179 422.654C770.266 409.747 818.221 381.314 873.096 333.172C891.353 317.156 909.128 298.95 926.317 281.347C952.697 254.33 979.975 226.392 1009.89 205.378C1041.05 183.492 1068.18 178.738 1090.55 191.25C1100.87 197.029 1110.98 206.558 1121.45 220.385C1130.67 232.557 1138.91 246.304 1146.88 259.598C1151.6 267.462 1156.05 274.888 1160.54 281.714L1297.89 490.802L1297.74 490.942Z" fill="white"/>
<path d="M1296.64 474.868C1261.66 416.651 1231.65 369.41 1202.2 326.202C1187.9 305.212 1173.3 284.552 1158.8 264.795C1154.41 258.819 1150.07 252.462 1145.47 245.731C1133.91 228.814 1121.95 211.321 1108.19 198.34C1100.81 191.356 1093.69 186.356 1086.45 183.054C1064.23 172.817 1038.14 179.585 1008.94 203.174C993.823 215.363 980.06 229.235 968.591 241.196C956.448 253.859 944.47 267.823 932.885 281.327C916.236 300.739 899.019 320.81 880.51 338.048C869.248 348.569 857.832 357.969 846.577 365.99C824.061 382.038 799.892 395.261 774.744 405.292C759.206 411.421 743.593 416.053 728.342 419.059C715.197 421.64 702.028 423.13 689.199 423.486C669.999 424.022 651.292 421.979 633.598 417.408C614.784 412.547 596.98 404.789 580.681 394.347C566.147 385.035 552.419 373.31 538.712 358.5C513.171 330.926 492.8 299.041 477.906 274.344C470.59 262.155 463.446 249.724 456.537 237.703C436.642 203.083 417.851 170.384 394.336 141.258C375.157 117.659 353.276 97.2929 329.293 80.7233C310.863 67.9895 290.818 57.5754 269.716 49.7687C264.69 47.9116 259.568 46.1807 254.498 44.6291C232.668 37.9601 208.092 33.6174 181.456 31.7205C154.601 29.7638 131.367 31.4571 110.43 36.9021C98.5937 39.9566 87.1262 44.7487 76.3413 51.1432C38.2667 73.7201 13.8178 111.62 10.9403 152.529L10.7109 152.504C11.478 141.599 13.7297 130.857 17.4017 120.574C20.8902 110.806 25.6817 101.386 31.6421 92.5739C42.904 75.929 58.3262 61.5153 76.2404 50.8931C87.0418 44.4875 98.5276 39.6888 110.382 36.6298C131.341 31.1804 154.594 29.4849 181.47 31.4438C208.121 33.3407 232.71 37.6879 254.555 44.3613C259.631 45.9151 264.754 47.646 269.784 49.5053C290.903 57.3164 310.964 67.7394 329.408 80.4843C353.408 97.0649 375.308 117.448 394.496 141.063C418.025 170.207 436.82 202.915 456.722 237.544C463.629 249.565 470.773 261.993 478.088 274.18C492.974 298.866 513.336 330.735 538.863 358.292C552.554 373.087 566.268 384.8 580.785 394.101C612.685 414.537 649.157 424.332 689.192 423.209C702.01 422.853 715.17 421.363 728.303 418.785C743.544 415.779 759.146 411.151 774.671 405.026C799.804 395.002 823.958 381.788 846.46 365.749C857.707 357.734 869.116 348.338 880.369 337.827C898.866 320.598 916.08 300.531 932.724 281.126C944.311 267.62 956.29 253.651 968.439 240.983C979.913 229.015 993.684 215.14 1008.81 202.941C1021.81 192.439 1034.4 185.183 1046.24 181.374C1060.77 176.695 1074.33 177.173 1086.53 182.795C1093.8 186.108 1100.93 191.122 1108.33 198.121C1122.11 211.122 1134.07 228.626 1145.64 245.554C1150.24 252.283 1154.59 258.64 1158.97 264.612C1173.48 284.371 1188.08 305.033 1202.38 326.027C1231.83 369.24 1261.84 416.485 1296.82 474.707L1296.64 474.868Z" fill="white"/>
<path d="M1295.53 458.79C1263.1 399.588 1232.67 350.047 1202.49 307.339C1187.77 286.478 1172.53 266.424 1157.21 247.736C1153.14 242.778 1149.13 237.626 1144.88 232.172C1132.15 215.839 1118.99 198.951 1104.25 187.266C1096.8 181.341 1089.67 177.215 1082.44 174.652C1054.75 164.833 1026.62 183.435 1007.9 200.768C994.631 213.012 982.516 226.857 970.245 241.149C959.504 253.66 949.398 267.117 938.699 281.363C922.82 302.51 906.4 324.376 887.818 342.736C876.791 353.69 865.283 363.162 853.613 370.886C831.877 385.278 808.073 396.454 780.844 405.055C765.606 409.867 750 413.296 734.46 415.241C721.349 416.864 708.261 417.443 695.558 416.959C676.66 416.246 658.188 413.041 640.652 407.434C622.235 401.544 604.662 392.939 588.423 381.856C574.196 372.148 560.458 360.103 546.425 345.034C520.94 317.705 499.107 287.407 482.937 264.065C476.951 255.424 471.06 246.729 465.362 238.318C442.671 204.825 421.239 173.186 395.184 146.532C375.712 126.612 353.85 109.768 330.211 96.4694C312.324 86.4072 293.366 78.8683 272.255 73.4211C267.382 72.1661 262.426 71.0351 257.524 70.059C235.995 65.7937 213.018 64.1801 185.218 62.5112C165.179 61.2474 138.946 60.4151 113.745 65.2448C101.809 67.4892 90.2718 71.387 79.4502 76.8254C41.35 95.978 15.5045 129.436 10.3111 166.329L10.0396 166.274C11.4159 156.491 14.2052 146.895 18.325 137.752C22.2521 129.04 27.4124 120.686 33.6609 112.917C45.5358 98.1583 61.3323 85.5706 79.3438 76.5177C90.1856 71.0683 101.745 67.1638 113.7 64.915C138.926 60.0787 165.179 60.9131 185.231 62.177C213.04 63.8459 236.024 65.4595 257.568 69.7269C262.474 70.7053 267.434 71.8363 272.312 73.0913C293.443 78.5452 312.419 86.0907 330.326 96.164C353.99 109.475 375.87 126.333 395.362 146.273C421.435 172.947 442.876 204.595 465.575 238.101C471.271 246.51 477.162 255.205 483.148 263.843C499.315 287.177 521.138 317.463 546.609 344.779C560.625 359.833 574.348 371.865 588.559 381.562C620.49 403.353 656.495 415.148 695.567 416.622C708.259 417.105 721.334 416.527 734.433 414.905C749.958 412.961 765.551 409.537 780.775 404.727C807.982 396.135 831.765 384.968 853.483 370.59C865.138 362.874 876.631 353.416 887.645 342.473C906.211 324.128 922.624 302.271 938.498 281.135C949.2 266.882 959.307 253.423 970.056 240.906C982.332 226.605 994.453 212.756 1007.73 200.498C1019.87 189.26 1031.84 181.177 1043.32 176.467C1057.23 170.756 1070.42 170.037 1082.52 174.326C1089.78 176.901 1096.94 181.04 1104.4 186.983C1119.17 198.689 1132.34 215.593 1145.08 231.939C1149.33 237.391 1153.34 242.542 1157.41 247.497C1172.74 266.192 1187.97 286.252 1202.7 307.12C1232.89 349.839 1263.33 399.389 1295.76 458.604L1295.53 458.79Z" fill="white"/>
<path d="M1294.42 442.711C1264.07 381.721 1234.09 331.27 1202.77 288.478C1187.63 267.745 1171.76 248.3 1155.62 230.679C1152.17 226.912 1148.61 222.915 1145.18 219.05C1130.99 203.083 1116.32 186.573 1100.3 176.194C1092.79 171.289 1085.63 168.035 1078.43 166.249C1050.8 159.39 1024.26 179.926 1006.86 198.359C995.062 210.803 984.281 224.907 973.854 238.548L971.901 241.102C962.434 253.478 953.554 267.05 944.151 281.422C929.178 304.307 913.697 327.968 895.124 347.424C884.318 358.827 872.718 368.369 860.647 375.784C839.6 388.713 816.177 397.938 786.938 404.818C771.819 408.375 756.221 410.597 740.575 411.42C727.496 412.082 714.489 411.75 701.911 410.429C663.833 406.447 628.254 392.631 596.162 369.365C582.288 359.308 568.542 346.946 554.138 331.567C529.762 305.597 508.083 278.903 487.968 253.788C485.27 250.421 482.602 247.076 479.954 243.759C452.481 209.342 426.533 176.834 396.037 151.813C376.128 135.478 354.289 122.158 331.128 112.22C314.124 104.924 295.696 99.9706 274.794 97.0754C270.083 96.4269 265.292 95.8935 260.552 95.4906C248.628 94.4946 235.98 94.333 222.589 94.1626C211.834 94.0254 200.713 93.8837 188.978 93.306C166.312 92.0953 140.625 90.7252 117.055 93.5937C104.894 95.0745 93.2866 98.0759 82.555 102.516C44.4694 118.276 17.2255 147.296 9.6778 180.145L9.36768 180.041C11.3569 171.38 14.6821 162.931 19.2497 154.93C23.6172 147.278 29.1445 139.987 35.6774 133.26C48.1726 120.396 64.3472 109.639 82.4485 102.149C93.204 97.6974 104.835 94.6894 117.02 93.2064C140.614 90.3356 166.314 91.7079 188.989 92.9187C200.717 93.4941 211.837 93.638 222.589 93.7753C235.986 93.9457 248.637 94.1073 260.572 95.1055C265.316 95.5106 270.113 96.044 274.827 96.6925C295.755 99.5899 314.205 104.55 331.232 111.857C354.421 121.806 376.284 135.142 396.215 151.495C426.738 176.537 452.699 209.061 480.184 243.493C482.832 246.811 485.502 250.153 488.197 253.522C508.308 278.633 529.981 305.32 554.349 331.281C568.738 346.643 582.47 358.993 596.327 369.038C628.377 392.274 663.91 406.07 701.938 410.048C714.501 411.367 727.496 411.699 740.56 411.037C756.189 410.214 771.773 407.994 786.876 404.441C816.085 397.569 839.481 388.354 860.5 375.443C872.545 368.044 884.123 358.52 894.912 347.136C913.461 327.705 928.932 304.056 943.896 281.185C953.302 266.807 962.188 253.227 971.663 240.843L973.615 238.289C984.048 224.641 994.834 210.528 1006.64 198.071C1024.1 179.578 1050.73 158.982 1078.49 165.873C1085.73 167.668 1092.91 170.933 1100.46 175.858C1116.51 186.258 1131.19 202.786 1145.39 218.771C1148.83 222.636 1152.38 226.633 1155.83 230.398C1171.98 248.028 1187.86 267.484 1203.01 288.228C1234.34 331.038 1264.33 381.506 1294.69 442.517L1294.42 442.711Z" fill="white"/>
<path d="M1293.31 426.631C1265.45 364.72 1235.08 311.892 1203.06 269.62C1187.49 249.018 1171 230.179 1154.03 213.628C1151.58 211.237 1149.07 208.756 1146.65 206.356C1130.61 190.506 1114.03 174.114 1096.37 165.127C1088.79 161.229 1081.62 158.85 1074.43 157.849C1046.88 154.016 1021.91 176.453 1005.82 195.951C995.828 207.997 986.809 221.392 978.086 234.347C976.578 236.589 975.069 238.827 973.559 241.056C965.263 253.301 957.506 266.98 949.294 281.46C935.332 306.077 920.896 331.532 902.434 352.117C891.593 364.204 880.226 373.549 867.681 380.689C841.443 395.623 815.222 401.15 793.033 404.59C778.026 406.914 762.435 407.932 746.69 407.609C733.652 407.31 720.723 406.064 708.267 403.908C671.332 397.531 636.219 381.71 603.905 356.882C590.459 346.554 576.705 333.871 561.853 318.11C546.852 302.226 532.872 286.942 519.351 272.161C510.162 262.115 501.482 252.626 493.006 243.522C460.965 209.108 431.617 178.85 396.898 157.101C376.562 144.363 354.744 134.562 332.052 127.973C315.787 123.249 298.401 120.95 277.34 120.73C272.796 120.691 268.168 120.755 263.586 120.923C256.626 121.195 249.425 121.764 241.803 122.368C227.178 123.526 210.598 124.839 192.738 124.104C185.938 123.823 178.999 123.426 172.288 123.041C155.027 122.052 137.179 121.029 120.364 121.943C108.016 122.616 96.3372 124.723 85.6569 128.207C47.6356 140.614 18.9952 165.198 9.04164 193.97L8.70215 193.8C11.308 186.265 15.169 178.965 20.177 172.102C24.9868 165.51 30.8811 159.284 37.693 153.597C50.8194 142.641 67.3702 133.714 85.5578 127.78C96.2638 124.287 107.968 122.174 120.344 121.501C137.177 120.584 155.033 121.609 172.303 122.599C179.012 122.984 185.95 123.38 192.749 123.661C210.592 124.396 227.159 123.086 241.778 121.928C249.403 121.324 256.605 120.755 263.573 120.483C268.161 120.314 272.793 120.25 277.342 120.29C298.433 120.507 315.844 122.813 332.136 127.543C354.856 134.142 376.703 143.954 397.065 156.71C412.748 166.533 428.64 178.979 445.65 194.756C460.877 208.88 475.69 224.334 493.248 243.192C501.725 252.298 510.405 261.787 519.595 271.834C533.114 286.613 547.094 301.896 562.092 317.778C576.929 333.524 590.668 346.193 604.097 356.51C636.368 381.305 671.431 397.104 708.314 403.472C720.756 405.626 733.668 406.87 746.692 407.169C762.418 407.492 777.993 406.476 792.982 404.152C815.143 400.719 841.329 395.198 867.522 380.291C880.032 373.17 891.369 363.85 902.181 351.793C920.611 331.244 935.037 305.81 948.987 281.212C957.205 266.723 964.965 253.037 973.271 240.779C974.781 238.551 976.288 236.313 977.796 234.073C986.524 221.109 995.549 207.704 1005.55 195.644C1016.02 182.958 1026.76 173.199 1037.48 166.639C1050.17 158.868 1062.61 155.764 1074.47 157.416C1081.69 158.421 1088.9 160.811 1096.51 164.724C1114.22 173.735 1130.82 190.148 1146.87 206.018C1149.3 208.417 1151.81 210.898 1154.25 213.287C1171.23 229.852 1187.74 248.708 1203.32 269.326C1220.32 291.772 1236.98 317.346 1252.81 345.337C1266.81 370.076 1280.54 397.359 1293.63 426.423L1293.31 426.631Z" fill="white"/>
<path d="M1292.21 410.546C1266.42 346.86 1236.52 293.1 1203.35 250.76C1187.35 230.288 1170.23 212.058 1152.45 196.573C1151.6 195.836 1150.76 195.099 1149.91 194.36C1131.42 178.237 1112.3 161.566 1092.45 154.06C1084.75 151.152 1077.55 149.644 1070.44 149.449C1042.99 148.701 1019.59 173.014 1004.79 193.539C996.08 205.546 988.348 218.707 980.872 231.434C979.024 234.582 977.112 237.836 975.225 241.005C968.037 253.077 961.356 266.803 954.283 281.336C941.418 307.771 928.115 335.104 909.749 356.804C899.124 369.359 887.666 378.775 874.719 385.592C849.213 399.021 823.314 402.547 799.128 404.357C784.214 405.473 768.629 405.283 752.805 403.793C739.808 402.531 726.963 400.373 714.622 397.381C678.944 388.748 644.297 370.922 611.649 344.394C598.574 333.772 585.203 321.142 569.574 304.648C539.869 273.385 517.811 251.366 498.055 233.254C458.76 197.23 428.769 176.037 397.776 162.389C377.026 153.252 355.231 146.973 332.991 143.723C317.562 141.47 301.187 141.672 279.9 144.383C275.538 144.945 271.075 145.607 266.634 146.353C262.439 147.068 258.178 147.887 253.666 148.752C237.005 151.951 218.12 155.576 196.506 154.899C185.114 154.543 173.477 153.566 162.225 152.624C149.436 151.552 136.212 150.443 123.675 150.293C111.104 150.142 99.3542 151.355 88.7602 153.901C50.8654 163 20.8249 183.153 8.40313 207.808L8.05078 207.549C11.2769 201.144 15.6738 194.993 21.1185 189.267C26.3742 183.738 32.6319 178.578 39.7191 173.928C53.4859 164.892 70.4165 157.796 88.6794 153.412C99.3028 150.862 111.079 149.644 123.678 149.795C136.227 149.945 149.458 151.054 162.252 152.128C173.501 153.071 185.132 154.047 196.515 154.403C218.09 155.078 236.955 151.457 253.598 148.263C258.112 147.395 262.377 146.579 266.574 145.862C271.02 145.116 275.487 144.454 279.852 143.889C301.173 141.176 317.575 140.972 333.037 143.232C355.308 146.486 377.135 152.774 397.913 161.924C428.949 175.59 458.971 196.806 498.3 232.86C518.064 250.979 540.13 273.005 569.842 304.276C585.46 320.757 598.816 333.373 611.876 343.984C644.481 370.475 679.076 388.277 714.701 396.896C727.025 399.884 739.856 402.038 752.834 403.299C768.64 404.787 784.205 404.977 799.1 403.864C823.25 402.056 849.105 398.538 874.552 385.141C887.451 378.35 898.869 368.965 909.458 356.455C927.783 334.801 941.073 307.496 953.924 281.09C961.002 266.548 967.687 252.812 974.886 240.722C976.773 237.554 978.685 234.301 980.533 231.153C988.014 218.415 995.751 205.245 1004.48 193.218C1014.13 179.822 1024.26 169.226 1034.57 161.723C1046.65 152.933 1058.72 148.642 1070.45 148.958C1077.6 149.153 1084.84 150.669 1092.57 153.591C1112.49 161.123 1131.63 177.817 1150.15 193.963C1151 194.703 1151.84 195.442 1152.69 196.177C1170.49 211.68 1187.63 229.931 1203.65 250.425C1236.85 292.804 1266.77 346.605 1292.57 410.336L1292.21 410.546Z" fill="white"/>
<path d="M808.259 404.127C807.229 404.127 806.214 404.125 805.216 404.118C790.379 404.043 774.799 402.649 758.913 399.971C745.965 397.746 733.2 394.676 720.972 390.849C703.502 385.391 685.97 377.546 668.857 367.535C652.332 357.867 635.69 345.879 619.391 331.901C603.42 318.207 588.502 302.948 577.29 291.183C551.055 263.733 526.094 240.788 503.101 222.986C465.859 194.154 432.671 176.577 398.654 167.673C378.132 162.301 356.115 159.467 334.916 159.467C334.587 159.467 334.261 159.467 333.932 159.47C315.721 159.545 298.431 163.626 282.461 168.027C278.305 169.18 274.005 170.439 269.682 171.774C267.313 172.513 264.94 173.275 262.43 174.08C244.723 179.771 224.652 186.219 200.269 185.69C185.42 185.367 170.253 183.512 155.585 181.717C146.114 180.557 136.322 179.359 126.981 178.636C114.141 177.642 102.325 177.961 91.8574 179.587C54.1645 185.44 22.7238 201.164 7.75125 221.651L7.40625 221.286C15.0861 210.779 26.6381 201.682 41.7409 194.245C56.1648 187.144 73.4752 181.885 91.7987 179.041C102.294 177.412 114.141 177.088 127.01 178.087C136.36 178.81 146.158 180.01 155.632 181.17C170.291 182.965 185.449 184.82 200.279 185.141C224.599 185.67 244.635 179.231 262.312 173.551C264.824 172.744 267.197 171.982 269.568 171.243C273.895 169.908 278.199 168.646 282.359 167.493C298.355 163.086 315.675 158.998 333.93 158.921C355.467 158.83 377.879 161.672 398.752 167.137C416.308 171.734 433.328 178.501 450.782 187.823C467.591 196.803 484.786 208.154 503.347 222.525C526.359 240.341 551.338 263.303 577.589 290.772C588.792 302.529 603.699 317.778 619.653 331.456C652.727 359.819 686.854 379.623 721.086 390.32C733.297 394.143 746.045 397.208 758.975 399.43C774.842 402.104 790.4 403.499 805.216 403.572C828.401 403.687 855.322 402.744 881.578 389.984C894.868 383.525 906.365 374.08 916.728 361.112C934.926 338.336 946.99 309.103 958.66 280.831C964.662 266.289 970.331 252.553 976.495 240.662C978.469 236.853 980.462 232.928 982.389 229.132C988.9 216.308 995.631 203.05 1003.39 190.794C1012.25 176.694 1021.76 165.258 1031.65 156.802C1043.13 146.999 1054.82 141.514 1066.41 140.501C1073.57 139.874 1080.83 140.514 1088.61 142.457C1109.42 147.65 1130.05 162.737 1151.11 179.065C1169.47 193.302 1187.75 211.441 1203.96 231.523C1221.97 253.766 1238.89 279.86 1254.25 309.079C1267.94 335.111 1280.47 363.766 1291.51 394.249L1291.09 394.47C1267.39 329.006 1237.96 274.313 1203.63 231.91C1187.44 211.857 1169.2 193.744 1150.86 179.532C1129.84 163.232 1109.25 148.175 1088.52 143C1080.78 141.067 1073.56 140.432 1066.44 141.054C1045.14 142.92 1022.88 160.703 1003.75 191.13C996.011 203.364 989.286 216.611 982.78 229.422C980.853 233.221 978.858 237.147 976.884 240.957C970.731 252.825 965.066 266.55 959.071 281.079C953.345 294.951 947.425 309.296 940.632 323.085C932.93 338.719 925.22 351.282 917.06 361.497C906.651 374.523 895.103 384.01 881.751 390.499C869.975 396.223 857.318 400.006 843.058 402.069C830.981 403.806 818.851 404.127 808.259 404.127Z" fill="white"/>
<path d="M837.687 405.236C828.329 405.236 819.341 404.563 811.3 403.882C796.514 402.629 780.942 400.028 765.017 396.15C752.123 392.965 739.439 388.985 727.317 384.317C694.121 371.561 661.349 350.328 627.126 319.409C612.201 305.927 598.131 291.42 585.003 277.719C559.084 250.749 533.228 228.88 508.147 212.718C471.262 188.948 436.751 176.311 399.539 172.952C378.336 171.037 355.977 171.818 334.878 175.209C317.217 178.047 300.567 184.895 285.023 191.664C281.135 193.366 276.999 195.225 272.732 197.188C271.666 197.682 270.59 198.184 269.5 198.691C251.599 207.04 231.343 216.487 205.347 216.487C204.909 216.487 204.472 216.485 204.03 216.478C186.442 216.264 168.486 213.236 151.118 210.305C144.233 209.143 137.113 207.943 130.281 206.972C116.936 205.077 105.379 204.517 94.946 205.265C57.0017 207.988 24.9738 219.002 7.07795 235.489L6.77148 235.005C15.6185 226.855 28.411 219.779 43.7615 214.542C58.8607 209.391 76.5492 205.973 94.9148 204.656C105.377 203.906 116.964 204.466 130.338 206.365C137.177 207.337 144.299 208.539 151.186 209.699C168.537 212.625 186.477 215.651 204.032 215.865C230.569 216.193 251.155 206.589 269.315 198.118C270.403 197.611 271.48 197.109 272.547 196.613C276.817 194.647 280.955 192.788 284.847 191.086C300.416 184.304 317.097 177.447 334.806 174.601C355.939 171.205 378.334 170.422 399.572 172.338C418.013 174.003 435.595 177.934 453.322 184.353C471.579 190.964 489.589 200.064 508.38 212.175C533.492 228.36 559.381 250.255 585.328 277.252C598.451 290.949 612.511 305.447 627.423 318.915C661.6 349.792 694.323 370.995 727.465 383.731C739.569 388.39 752.237 392.365 765.112 395.546C781.015 399.419 796.566 402.018 811.329 403.266C836.173 405.369 862.602 406.449 888.601 394.813C902.282 388.689 913.86 379.184 923.993 365.756C942.047 341.835 953.283 309.207 963.198 280.419C968.186 265.935 972.898 252.254 978.097 240.591C979.973 236.384 981.861 232.034 983.687 227.829C989.398 214.67 995.303 201.064 1002.29 188.357C1010.38 173.554 1019.28 161.276 1028.73 151.864C1039.6 141.056 1050.92 134.381 1062.37 132.028C1069.53 130.556 1076.82 130.321 1084.65 131.304C1106.53 134.055 1128.76 147.65 1149.53 161.933C1168.7 175.121 1187.63 192.642 1204.27 212.603C1222.79 234.741 1239.84 261.096 1254.97 290.931C1268.49 317.612 1280.43 346.953 1290.45 378.144L1289.98 378.363C1268.68 312.062 1238.92 254.892 1203.92 213.032C1187.31 193.109 1168.42 175.621 1149.28 162.46C1128.57 148.21 1106.39 134.648 1084.6 131.908C1076.81 130.93 1069.57 131.164 1062.46 132.625C1041.31 136.97 1020.09 156.88 1002.72 188.689C995.74 201.37 989.842 214.962 984.136 228.108C982.311 232.315 980.422 236.665 978.545 240.877C973.357 252.513 968.65 266.181 963.666 280.65C953.734 309.482 942.48 342.163 924.367 366.163C914.177 379.665 902.535 389.222 888.778 395.382C876.838 400.725 863.96 403.82 849.402 404.836C845.466 405.123 841.546 405.236 837.687 405.236Z" fill="white"/>
<path d="M856.157 407.633C856.023 407.633 855.891 407.633 855.757 407.633C842.533 407.593 829.55 405.641 817.383 403.645C802.62 401.223 787.056 397.414 771.122 392.327C758.287 388.186 745.684 383.292 733.664 377.785C701.796 363.206 670.403 340.688 634.866 306.918C622.068 294.76 609.474 281.668 597.292 269.009C595.769 267.424 594.244 265.842 592.719 264.259C566.667 237.295 539.913 216.5 513.203 202.454C476.628 183.222 439.74 175.298 400.433 178.23C378.879 179.84 356.541 184.238 335.832 190.949C319.492 196.245 304.932 204.743 287.594 215.301C284.08 217.45 280.327 219.77 275.787 222.603L275.534 222.762C266.775 228.265 256.847 234.5 245.712 239.241C232.923 244.686 220.516 247.307 207.793 247.276C187.954 247.216 167.707 242.763 148.129 238.453C143.332 237.397 138.37 236.306 133.58 235.319C119.844 232.492 108.217 231.065 98.0344 230.956C60.5397 230.558 27.1373 237.26 6.39336 249.341L6.15479 248.743C16.3157 242.825 30.022 238.021 45.791 234.852C61.5894 231.676 79.6577 230.1 98.0399 230.294C108.252 230.403 119.909 231.833 133.674 234.666C138.467 235.653 143.429 236.744 148.228 237.8C167.783 242.103 188.004 246.552 207.795 246.612C207.883 246.612 207.973 246.612 208.061 246.612C236.371 246.612 257.939 233.066 275.281 222.173L275.536 222.014C280.078 219.179 283.831 216.859 287.347 214.71C304.714 204.134 319.299 195.621 335.69 190.309C356.434 183.585 378.81 179.18 400.399 177.569C419.635 176.134 437.779 177.228 455.871 180.915C475.367 184.888 494.193 191.734 513.423 201.848C540.184 215.92 566.984 236.749 593.079 263.757C594.604 265.339 596.129 266.924 597.652 268.509C609.828 281.163 622.419 294.251 635.206 306.4C670.696 340.128 702.043 362.615 733.859 377.17C745.862 382.67 758.447 387.555 771.263 391.692C787.175 396.772 802.717 400.575 817.456 402.992C843.858 407.326 869.705 410.331 895.635 399.672C909.707 393.886 921.363 384.322 931.267 370.43C949.159 345.337 958.933 310.566 967.558 279.886C971.595 265.523 975.409 251.955 979.71 240.554C981.365 236.167 983.026 231.629 984.632 227.24C989.653 213.517 994.844 199.329 1001.21 185.951C1008.54 170.437 1016.82 157.316 1025.82 146.953C1036.09 135.142 1047.02 127.28 1058.33 123.588C1065.34 121.299 1072.5 120.184 1080.19 120.184C1080.35 120.184 1080.52 120.184 1080.69 120.186C1104.59 120.336 1129.19 133.435 1147.96 144.83C1167.94 156.971 1187.53 173.872 1204.6 193.709C1223.61 215.746 1240.8 242.36 1255.69 272.814C1269.04 300.143 1280.39 330.173 1289.4 362.072L1288.87 362.287C1275.47 314.822 1249.9 247.132 1204.21 194.189C1187.19 174.397 1167.65 157.535 1147.71 145.423C1129 134.059 1104.48 120.998 1080.69 120.85C1072.85 120.794 1065.59 121.906 1058.48 124.23C1037.52 131.071 1017.36 153.108 1001.69 186.281C995.336 199.627 990.15 213.8 985.135 227.508C983.529 231.899 981.866 236.439 980.211 240.828C975.921 252.201 972.111 265.751 968.079 280.098C959.44 310.834 949.647 345.671 931.686 370.862C921.715 384.846 909.98 394.474 895.813 400.298C883.806 405.232 870.828 407.633 856.157 407.633Z" fill="white"/>
<path d="M870.843 410.75C867.995 410.75 865.084 410.64 862.104 410.418C849.06 409.451 836.383 406.549 823.464 403.406C808.488 399.763 793.363 394.889 777.225 388.505C764.457 383.41 751.936 377.607 740.01 371.252C709.754 355.156 679.714 331.461 642.606 294.426C633.391 285.23 624.178 275.584 615.269 266.254C610.419 261.177 605.405 255.924 600.438 250.796C574.075 223.65 546.427 203.933 518.262 192.189C481.048 176.671 442.801 173.829 401.332 183.501C379.422 188.612 357.104 196.627 336.791 206.678C320.474 214.752 306.259 226.092 291.209 238.097L290.169 238.927C287.818 240.809 285.442 242.717 283.036 244.647C281.65 245.76 280.256 246.88 278.848 248.009C270.073 255.085 260.594 262.467 249.725 268.149C237.105 274.745 224.623 277.99 211.561 278.069C189.815 278.198 167.634 272.102 146.185 266.201C143.124 265.358 139.957 264.488 136.883 263.662C122.472 259.789 111.111 257.56 101.124 256.643C64.272 253.264 29.4933 255.645 5.70311 263.18L5.55078 262.485C29.4034 254.93 64.2537 252.54 101.17 255.926C111.184 256.845 122.575 259.08 137.013 262.961C140.089 263.788 143.256 264.658 146.319 265.502C167.505 271.329 189.405 277.352 210.863 277.352C211.094 277.352 211.326 277.352 211.559 277.35C239.313 277.182 259.069 263.091 278.52 247.411C279.927 246.282 281.322 245.162 282.707 244.049C285.113 242.117 287.488 240.211 289.84 238.327L290.881 237.497C305.956 225.472 320.195 214.113 336.566 206.012C356.915 195.941 379.272 187.912 401.22 182.793C442.794 173.096 481.144 175.947 518.458 191.507C546.693 203.282 574.405 223.044 600.827 250.249C605.794 255.38 610.81 260.63 615.66 265.71C624.566 275.037 633.776 284.681 642.986 293.871C680.05 330.864 710.048 354.525 740.25 370.595C752.16 376.938 764.662 382.735 777.413 387.822C793.527 394.196 808.629 399.063 823.584 402.7C846.284 408.223 874.535 415.097 902.669 404.508C917.133 399.066 928.867 389.442 938.54 375.086C956.259 348.79 964.475 311.806 971.725 279.178C974.875 265.004 977.849 251.615 981.321 240.503C982.674 236.174 984.03 231.696 985.34 227.364C989.737 212.838 994.284 197.818 1000.12 183.532C1006.71 167.297 1014.38 153.332 1022.91 142.026C1032.57 129.215 1043.13 120.169 1054.29 115.138C1061.45 111.908 1068.79 109.918 1076.73 109.053C1087.35 107.893 1098.67 109.133 1111.31 112.833C1122.01 115.968 1133.48 120.833 1146.38 127.71C1167.18 138.801 1187.42 155.085 1204.91 174.8C1224.43 196.733 1241.76 223.61 1256.4 254.682C1269.59 282.662 1280.34 313.38 1288.34 345.986L1287.77 346.189C1270.87 277.352 1241.3 216.671 1204.51 175.327C1187.06 155.665 1166.87 139.428 1146.13 128.369C1118.35 113.553 1096.31 107.641 1076.78 109.77C1068.9 110.629 1061.61 112.605 1054.5 115.81C1027.95 127.778 1010.57 159.417 1000.66 183.849C994.833 198.099 990.291 213.101 985.9 227.61C984.588 231.944 983.232 236.424 981.879 240.756C978.418 251.834 975.447 265.207 972.302 279.364C965.037 312.063 956.803 349.124 939.002 375.539C929.252 390.008 917.425 399.71 902.845 405.197C892.963 408.915 882.424 410.75 870.843 410.75Z" fill="white"/>
<path d="M883.568 414.322C864.161 414.322 845.504 408.309 829.542 403.165C814.526 398.326 799.408 392.279 783.325 384.68C770.628 378.638 758.188 371.922 746.352 364.718C710.87 343.146 679.239 312.182 650.343 281.934C644.444 275.758 638.483 269.392 632.721 263.237C624.72 254.689 616.445 245.851 608.155 237.333C581.397 209.92 552.856 191.277 523.325 181.92C485.124 169.82 445.514 172.058 402.231 188.764C379.946 197.366 357.649 208.997 337.751 222.402C322.404 232.738 309.419 245.789 295.673 259.605C294.698 260.583 293.722 261.566 292.74 262.549L292.208 263.084C288.866 266.446 285.411 269.921 281.907 273.41C273.514 281.805 264.27 290.488 253.579 297.122C241.168 304.823 228.657 308.663 215.325 308.862C191.923 309.214 168.073 301.279 145.009 293.605C143.393 293.067 141.783 292.531 140.181 292.002C124.972 286.969 113.877 283.985 104.21 282.325C68.2821 276.159 32.1233 274.22 5.00426 277.007L4.94922 276.234C32.1123 273.441 68.3243 275.382 104.299 281.557C113.994 283.222 125.113 286.212 140.35 291.254C141.952 291.783 143.561 292.319 145.18 292.859C168.199 300.517 192.004 308.433 215.315 308.087C244.268 307.654 264.658 289.652 281.496 272.812C285 269.324 288.455 265.849 291.797 262.489L292.329 261.953C293.311 260.968 294.287 259.988 295.261 259.009C309.032 245.169 322.039 232.096 337.437 221.724C357.372 208.296 379.711 196.644 402.035 188.027C422.555 180.108 441.829 175.535 460.956 174.047C482.293 172.39 503.33 174.787 523.487 181.172C553.111 190.557 581.737 209.254 608.569 236.742C616.866 245.264 625.142 254.104 633.145 262.655C638.907 268.81 644.864 275.174 650.762 281.347C679.628 311.562 711.221 342.493 746.638 364.025C758.458 371.218 770.88 377.925 783.559 383.959C799.617 391.546 814.711 397.585 829.706 402.416C852.729 409.836 881.382 419.07 909.694 409.353C924.551 404.254 936.362 394.57 945.803 379.749C963.339 352.216 969.902 312.957 975.691 278.317C978.018 264.399 980.215 251.254 982.923 240.459C983.925 236.466 984.931 232.34 985.904 228.349C989.71 212.74 993.646 196.598 999.028 181.119C1004.88 164.149 1011.93 149.337 1019.98 137.099C1029.05 123.289 1039.24 113.059 1050.24 106.691C1057.38 102.556 1064.75 99.6899 1072.75 97.9258C1083.53 95.5508 1095.5 95.6305 1108.31 98.1627C1119.54 100.381 1131.81 104.562 1144.79 110.593C1166.4 120.635 1187.29 136.3 1205.22 155.893C1225.25 177.724 1242.71 204.86 1257.11 236.552C1270.13 265.183 1280.28 296.591 1287.27 329.903L1286.65 330.093C1271.83 259.507 1242.75 197.846 1204.79 156.468C1186.92 136.939 1166.09 121.326 1144.56 111.317C1116.64 98.3442 1093.19 94.2117 1072.87 98.6895C1064.92 100.44 1057.61 103.287 1050.52 107.39C1024.34 122.541 1008.39 156.008 999.621 181.418C994.251 196.857 990.321 212.977 986.52 228.566C985.548 232.557 984.54 236.685 983.538 240.682C980.839 251.442 978.644 264.569 976.321 278.47C973.535 295.134 970.379 314.022 965.797 331.729C960.546 352.017 954.173 367.878 946.313 380.22C941.768 387.356 936.545 393.43 930.788 398.273C924.597 403.481 917.559 407.461 909.87 410.099C901.073 413.121 892.244 414.322 883.568 414.322Z" fill="white"/>
<path d="M895.037 418.242C888.621 418.242 881.899 417.49 874.799 415.987C860.816 413.027 847.431 407.658 835.62 402.923C820.734 396.953 805.19 389.527 789.425 380.853C776.809 373.872 764.449 366.245 752.694 358.179C718.952 335.055 689.882 304.309 658.08 269.439C655.254 266.34 652.384 263.179 649.609 260.12C638.681 248.081 627.382 235.633 615.871 223.871C588.669 196.137 559.236 178.569 528.388 171.654C489.477 162.931 447.332 170.457 403.13 194.025C380.448 206.119 358.172 221.365 338.711 238.119C324.057 250.733 311.995 265.605 299.225 281.351C297.927 282.952 296.625 284.556 295.314 286.168C292.053 290.183 288.541 294.492 284.968 298.806C277.475 307.883 268.344 318.227 257.434 326.091C245.222 334.896 232.679 339.334 219.092 339.655C194.219 340.246 168.9 330.312 144.414 320.706L143.482 320.341C131.493 315.639 118.811 310.889 107.298 308.005C72.2032 299.216 35.6279 293.113 4.31201 290.822L4.35422 289.995C35.7032 292.288 72.3115 298.395 107.437 307.193C118.984 310.086 131.688 314.842 143.695 319.55L144.627 319.916C169.06 329.5 194.327 339.409 219.079 338.823C247.664 338.145 267.406 318.906 284.482 298.215C288.055 293.904 291.563 289.594 294.824 285.581C296.135 283.972 297.437 282.365 298.735 280.767C311.527 264.994 323.611 250.096 338.312 237.439C357.81 220.653 380.129 205.378 402.853 193.262C423.591 182.206 443.999 174.587 463.506 170.621C485.795 166.09 507.668 166.161 528.517 170.833C559.482 177.774 589.023 195.404 616.317 223.234C627.837 235.007 639.142 247.459 650.075 259.505C652.85 262.562 655.72 265.722 658.546 268.821C690.317 303.658 719.356 334.371 753.037 357.455C764.776 365.508 777.117 373.124 789.715 380.096C805.458 388.757 820.976 396.172 835.84 402.133C859.14 411.478 888.139 423.105 916.733 414.196C931.984 409.444 943.872 399.703 953.077 384.412C970.421 355.605 975.44 312.184 979.473 277.294C981.044 263.704 982.527 250.868 984.538 240.421C985.171 237.127 985.812 233.734 986.43 230.452C989.641 213.399 992.965 195.765 997.947 178.713C1005.64 152.176 1020.26 116.678 1046.2 98.2553C1053.36 93.1689 1060.75 89.4238 1068.79 86.8075C1089.82 79.864 1114.86 82.1107 1143.21 93.481C1165.63 102.474 1187.18 117.519 1205.54 136.99C1226.08 158.717 1243.67 186.115 1257.84 218.428C1264.34 233.249 1270.08 249.08 1274.91 265.479C1279.52 281.143 1283.33 297.41 1286.22 313.826L1285.55 313.999C1272.8 241.66 1244.22 179.018 1205.09 137.612C1186.8 118.214 1165.32 103.227 1142.99 94.2667C1114.77 82.9473 1089.87 80.7074 1068.97 87.6066C1060.99 90.2029 1053.66 93.9192 1046.55 98.968C1020.78 117.262 1006.25 152.579 998.597 178.985C993.625 195.993 990.309 213.603 987.1 230.633C986.481 233.916 985.843 237.311 985.208 240.607C983.204 251.019 981.721 263.836 980.154 277.407C978.124 294.964 975.825 314.862 971.894 333.643C967.378 355.224 961.405 371.991 953.633 384.899C949.2 392.263 944.014 398.474 938.222 403.357C931.983 408.618 924.809 412.536 916.904 414.997C909.965 417.162 902.718 418.242 895.037 418.242Z" fill="white"/>
<path d="M905.606 422.382C897.917 422.382 889.808 421.18 881.146 418.769C867.111 414.867 853.609 408.391 841.695 402.676C826.697 395.482 811.163 386.852 795.524 377.022C782.991 369.109 770.714 360.57 759.035 351.639C726.899 327.081 699.336 295.429 670.154 261.922C668.71 260.264 667.266 258.604 665.818 256.944C652.247 241.38 638.216 225.284 623.589 210.409C595.914 182.323 565.589 165.829 533.456 161.384C493.095 155.8 449.55 168.552 404.029 199.28C381.259 214.65 358.403 234.024 339.67 253.832C325.525 268.788 314.18 285.617 302.17 303.435C300.748 305.544 299.322 307.66 297.885 309.781C295.015 314.024 291.6 319.055 288.025 324.201C281.404 333.756 272.382 345.899 261.287 355.034C249.269 364.93 236.699 369.975 222.857 370.45C211.479 370.793 198.924 368.675 184.47 363.972C172.061 359.934 160.058 354.658 146.776 348.681C134.651 343.159 121.855 337.455 110.375 333.688C76.3685 322.528 40.4483 312.756 3.61426 304.637L3.74638 303.767C40.6025 311.888 76.5428 321.669 110.567 332.833C122.079 336.612 134.893 342.325 147.033 347.851C169.296 357.872 197.004 370.346 222.837 369.565C252.371 368.547 271.351 346.886 287.461 323.63C291.034 318.488 294.448 313.459 297.316 309.218C298.753 307.098 300.179 304.982 301.599 302.875C313.63 285.028 324.995 268.171 339.185 253.166C357.957 233.318 380.857 213.907 403.671 198.508C449.33 167.686 493.025 154.901 533.541 160.506C549.075 162.655 564.333 167.646 578.889 175.34C594.508 183.594 609.706 195.168 624.062 209.734C638.706 224.624 652.747 240.729 666.324 256.305C667.772 257.967 669.218 259.625 670.663 261.283C699.817 294.76 727.356 326.381 759.43 350.893C771.092 359.811 783.35 368.339 795.866 376.239C811.482 386.053 826.993 394.672 841.969 401.854C865.506 413.143 894.799 427.191 923.765 419.044C939.455 414.63 951.421 404.829 960.344 389.083C977.533 359.007 980.594 313.063 983.055 276.148C983.936 262.945 984.767 250.474 986.145 240.39C986.429 238.31 986.714 236.218 986.998 234.115C989.571 215.122 992.232 195.48 996.858 176.312C1003.46 148.741 1016.68 111.357 1042.15 89.8248C1049.25 83.8176 1056.67 79.196 1064.82 75.6943C1076.14 70.7828 1088.76 68.4742 1102.32 68.8283C1114.71 69.1515 1127.93 71.6903 1141.62 76.3716C1164.85 84.3112 1187.06 98.736 1205.85 118.086C1226.89 139.706 1244.63 167.37 1258.55 200.303C1264.94 215.414 1270.47 231.57 1274.99 248.321C1279.33 264.364 1282.75 280.995 1285.16 297.753L1284.43 297.904C1273.93 224.881 1245.11 159.585 1205.38 118.759C1186.66 99.493 1164.55 85.1279 1141.42 77.2194C1112.9 67.4671 1086.5 67.228 1065.06 76.5244C1056.97 79.9994 1049.62 84.5856 1042.57 90.5463C1017.27 111.93 1004.13 149.122 997.561 176.555C992.948 195.672 990.291 215.286 987.721 234.255C987.437 236.357 987.152 238.451 986.868 240.532C985.494 250.578 984.664 263.033 983.785 276.216C981.317 313.238 978.247 359.315 960.947 389.583C956.646 397.173 951.502 403.525 945.661 408.459C939.376 413.767 932.065 417.618 923.932 419.907C918.059 421.554 911.978 422.382 905.606 422.382Z" fill="white"/>
<path d="M915.621 425.659C906.86 425.659 897.578 423.95 887.575 420.52C873.423 415.666 859.836 408.085 847.851 401.398C832.704 392.947 817.177 383.108 801.702 372.161C789.258 363.329 777.064 353.876 765.455 344.068C736.87 319.924 712.439 290.346 686.573 259.031C682.345 253.911 677.972 248.619 673.634 243.415C658.384 225.133 645.363 210.057 631.385 195.915C603.216 167.458 572.001 152.037 538.604 150.08C496.639 147.621 451.688 165.594 405.004 203.499C381.812 222.33 358.976 245.416 340.704 268.507C326.939 285.902 316.178 304.838 304.785 324.885C303.374 327.368 301.957 329.86 300.532 332.355C297.992 336.806 294.63 342.672 291.16 348.553C276.556 373.361 257.476 398.901 226.7 400.207C225.74 400.245 224.777 400.262 223.815 400.262C199.783 400.262 175.248 388.79 150.147 375.981L148.58 375.176C136.147 368.774 124.403 362.729 113.532 358.329C72.563 341.746 32.9414 327.749 3 317.408L3.21471 316.502C33.1635 326.848 72.7961 340.848 113.779 357.437C124.68 361.849 136.437 367.902 148.886 374.31L150.452 375.116C176.472 388.394 201.882 400.238 226.673 399.269C257.108 397.976 276.027 372.632 290.523 348.01C293.991 342.134 297.349 336.273 299.889 331.824C301.315 329.327 302.73 326.837 304.141 324.353C315.552 304.275 326.329 285.309 340.138 267.858C358.447 244.719 381.329 221.587 404.567 202.717C426.135 185.205 447.71 171.758 468.692 162.747C492.767 152.409 516.302 147.831 538.641 149.139C572.21 151.105 603.583 166.601 631.884 195.192C645.882 209.355 658.917 224.446 674.181 242.745C678.521 247.948 682.894 253.243 687.124 258.363C712.964 289.647 737.371 319.196 765.901 343.291C777.493 353.088 789.669 362.526 802.094 371.344C817.548 382.278 833.051 392.102 848.176 400.539C871.918 413.786 901.467 430.272 930.876 422.85C946.952 418.793 958.993 408.935 967.688 392.712C984.661 361.266 985.681 312.737 986.502 273.744C986.769 261.021 987.023 249.002 987.832 239.318L987.85 239.097C989.665 217.412 991.543 194.99 995.846 172.867C999.573 153.571 1004.76 136.222 1011.27 121.299C1018.61 104.475 1027.66 90.6985 1038.18 80.3508C1045.21 73.4272 1052.65 67.9269 1060.92 63.5377C1083.26 51.6096 1110.65 49.768 1140.11 58.2166C1151.96 61.6164 1163.66 66.7671 1174.87 73.5224C1186.15 80.3176 1196.7 88.6024 1206.25 98.1422C1227.8 119.659 1245.66 147.583 1259.35 181.141C1271.65 211.303 1280.23 245.711 1284.18 280.641L1283.41 280.767C1274.96 206.006 1246.66 139.706 1205.75 98.866C1186.62 79.7377 1163.86 65.9968 1139.93 59.1374C1110.64 50.7375 1083.43 52.5591 1061.24 64.4053C1053.03 68.7613 1045.65 74.2174 1038.67 81.0856C1019.05 100.407 1004.5 132.22 996.607 173.086C992.315 195.152 990.442 217.543 988.628 239.197L988.61 239.418C987.803 249.066 987.549 261.067 987.281 273.772C986.457 312.886 985.433 361.561 968.341 393.228C964.15 401.05 959.043 407.54 953.167 412.516C946.83 417.881 939.385 421.668 931.036 423.778C926.063 425.031 920.937 425.659 915.621 425.659Z" fill="white"/>
<path d="M227.189 432.112C216.442 432.112 204.74 429.586 191.533 424.429C178.41 419.305 165.432 412.231 153.361 405.352C151.175 404.099 149.006 402.848 146.852 401.607C136.128 395.425 125.998 389.586 116.531 385.037C78.7808 366.907 42.7982 350.612 7.99928 334.857L2.2334 332.245L2.52334 331.313L8.28922 333.925C43.09 349.684 79.0781 365.979 116.835 384.114C126.328 388.674 136.471 394.519 147.208 400.71C149.36 401.952 151.529 403.203 153.713 404.453C178.493 418.575 204.819 432.26 230.352 431.041C261.74 429.465 280.55 399.973 293.428 374.459C296.728 367.934 299.906 361.431 302.306 356.495C303.631 353.775 304.947 351.057 306.259 348.345C317.141 325.868 327.42 304.637 340.937 284.619C358.78 258.199 381.64 231.342 405.309 208.997C427.267 188.267 449.426 171.887 471.172 160.316C496.115 147.042 520.477 140.154 543.583 139.841C578.351 139.217 610.643 153.644 639.549 182.718C655.574 198.853 669.94 216.308 681.883 231.256C688.381 239.39 694.879 247.728 701.165 255.791C723.412 284.338 746.416 313.854 772.216 337.761C783.74 348.443 795.837 358.793 808.167 368.521C823.426 380.533 838.922 391.56 854.226 401.295C878.149 416.51 907.919 435.445 937.83 428.725C954.292 425.027 966.409 415.111 974.875 398.41C991.622 365.539 990.491 314.352 989.581 273.222C989.313 261.059 989.058 249.569 989.365 240.319C990.053 219.467 991.09 195.232 994.681 171.496C997.707 151.382 1002.28 133.186 1008.26 117.413C1015.03 99.5706 1023.71 84.6123 1034.05 72.9521C1040.9 65.225 1048.58 58.6667 1056.87 53.4563C1068.7 45.9971 1081.97 41.3069 1096.32 39.5184C1109.76 37.8429 1123.93 38.7238 1138.44 42.1347C1150.67 45.0121 1162.73 49.7444 1174.28 56.2031C1185.9 62.7017 1196.73 70.7984 1206.48 80.2674C1217.71 91.1707 1228.04 104.046 1237.18 118.537C1245.84 132.267 1253.51 147.58 1259.99 164.047C1272.1 194.856 1280.07 229.974 1283.04 265.599L1282.22 265.698C1275.85 189.196 1248.05 121.893 1205.96 81.0443C1186.68 62.3144 1162.65 48.8435 1138.28 43.113C1108.15 36.0279 1080.13 39.9102 1057.25 54.3395C1049.03 59.5078 1041.41 66.0152 1034.61 73.6803C1015.13 95.6506 1001.97 128.619 995.492 171.675C991.908 195.347 990.875 219.54 990.189 240.359C989.884 249.576 990.137 261.048 990.407 273.195C990.855 293.486 991.363 316.485 989.66 338.719C987.684 364.519 983.078 384.214 975.579 398.931C971.498 406.983 966.43 413.612 960.517 418.632C954.131 424.055 946.548 427.78 937.982 429.704C933.66 430.675 929.342 431.116 925.05 431.116C899.346 431.116 874.438 415.272 853.843 402.173C838.516 392.423 822.997 381.38 807.718 369.351C795.369 359.609 783.256 349.244 771.715 338.546C745.862 314.591 722.833 285.044 700.565 256.471C694.281 248.41 687.785 240.074 681.291 231.944C669.364 217.014 655.017 199.584 639.023 183.479C610.272 154.561 578.169 140.218 543.596 140.833C489.301 141.568 438.704 178.729 405.819 209.777C382.197 232.077 359.383 258.877 341.579 285.243C328.102 305.201 317.839 326.399 306.973 348.841C305.661 351.552 304.343 354.271 303.018 356.993C300.616 361.931 297.436 368.439 294.135 374.97C288.729 385.681 280.241 401.272 268.999 412.959C263.54 418.634 257.73 423.094 251.731 426.218C245.042 429.699 237.86 431.656 230.387 432.03C229.328 432.085 228.262 432.112 227.189 432.112Z" fill="white"/>
<path d="M230.638 462.927C219.879 462.927 208.2 460.207 195.063 454.655C181.461 448.909 168.014 440.83 156.654 433.683C153.164 431.483 149.681 429.252 146.312 427.094C136.894 421.062 127.998 415.363 119.609 410.71C89.4863 393.999 59.5595 377.684 30.6164 361.904C21.0427 356.685 11.1442 351.289 1.55029 346.047L1.90996 345.089C11.5038 350.33 21.4024 355.727 30.9761 360.946C59.9192 376.725 89.8496 393.043 119.975 409.756C128.385 414.422 137.292 420.126 146.721 426.166C150.088 428.325 153.572 430.553 157.058 432.754C180.617 447.57 207.944 463.254 234.11 461.778C266.237 459.923 284.282 427.72 296.415 399.873C299.526 392.739 302.534 385.577 304.805 380.134C305.973 377.341 307.132 374.55 308.29 371.765C318.699 346.72 328.53 323.066 341.819 300.349C359.104 270.805 381.946 240.226 406.132 214.247C439.815 178.224 491.875 134.283 548.605 129.518C584.683 126.406 617.889 139.762 647.297 169.218C660.51 182.458 673.575 197.731 689.666 218.743C697.797 229.361 705.866 240.366 713.669 251.006C733.97 278.689 754.96 307.315 778.613 331.209C790.071 342.787 802.085 354.047 814.322 364.676C829.138 377.533 844.628 389.765 860.359 401.031C884.522 418.231 914.593 439.642 944.863 433.581C961.46 430.328 974.001 420.068 982.141 403.092C998.657 368.733 995.114 312.521 992.524 271.477C991.798 259.959 991.111 249.08 990.977 240.304C990.676 220.799 990.702 195.081 993.596 169.107C998.591 124.097 1010.84 88.9128 1030 64.5364C1036.72 55.9484 1044.42 48.487 1052.9 42.358C1064.95 33.6283 1078.55 27.7561 1093.32 24.9075C1107.24 22.2248 1121.88 22.2669 1136.85 25.0336C1149.48 27.4197 1161.9 31.7447 1173.77 37.8847C1185.75 44.0867 1196.86 51.9886 1206.79 61.3713C1218.28 72.2126 1228.77 85.1323 1237.98 99.774C1246.71 113.65 1254.35 129.179 1260.71 145.935C1272.63 177.392 1279.99 213.218 1281.98 249.54L1281.11 249.609C1276.82 171.36 1249.54 103.052 1206.26 62.2013C1186.63 43.6684 1161.94 30.8372 1136.72 26.0739C1105.63 20.3301 1076.8 26.2731 1053.35 43.2611C1044.94 49.3391 1037.3 56.7408 1030.64 65.2602C1011.6 89.475 999.432 124.46 994.462 169.249C991.576 195.152 991.552 220.819 991.851 240.286C991.987 249.031 992.671 259.897 993.396 271.4C994.734 292.616 996.25 316.664 995.383 340.142C994.372 367.48 990.289 388.244 982.897 403.621C978.921 411.914 973.893 418.687 967.949 423.752C961.506 429.243 953.787 432.9 945.008 434.622C931.392 437.346 916.737 434.898 900.204 427.136C885.834 420.387 872.065 410.586 859.918 401.941C844.164 390.659 828.654 378.41 813.815 365.534C801.561 354.89 789.53 343.615 778.055 332.021C754.353 308.079 733.339 279.421 713.017 251.709C705.218 241.072 697.151 230.073 689.027 219.464C672.964 198.49 659.922 183.246 646.741 170.037C617.508 140.749 584.513 127.473 548.664 130.565C492.178 135.313 440.291 179.118 406.708 215.033C382.57 240.959 359.776 271.473 342.528 300.956C329.275 323.608 319.459 347.229 309.067 372.237C307.909 375.023 306.749 377.814 305.582 380.608C303.308 386.055 300.298 393.224 297.184 400.365C284.944 428.46 266.718 460.95 234.149 462.829C232.991 462.894 231.818 462.927 230.638 462.927Z" fill="white"/>
<path d="M234.158 493.745C204.76 493.745 173.914 471.967 146.569 452.659C138.166 446.727 130.229 441.123 122.687 436.384L0.867676 359.851L1.29159 358.87L123.111 435.403C130.673 440.153 138.619 445.764 147.033 451.705C175.435 471.759 207.628 494.488 237.868 492.518C270.704 490.382 288.001 455.468 299.403 425.292C303.132 415.423 306.732 405.381 310.215 395.668C319.741 369.107 329.59 341.641 342.698 316.078C353.107 295.781 366.037 274.495 380.09 254.523C395.507 232.612 412.014 212.51 429.148 194.776C448.04 175.225 467.25 159.052 486.241 146.708C507.248 133.055 527.942 124.142 547.754 120.213C587.441 112.344 623.538 124.286 655.037 155.71C681.215 181.821 703.464 214.11 724.98 245.337C743.709 272.518 763.075 300.622 785.004 324.646C810.334 352.394 837.749 378.001 866.488 400.752C890.702 419.923 920.838 443.783 951.897 438.42C978.128 433.892 993.295 412.722 998.261 373.7C1002.49 340.508 998.466 301.133 995.238 269.497C994.137 258.715 993.099 248.531 992.588 240.273C989.773 194.748 991.568 157.166 998.074 125.384C1002.13 105.554 1008.12 87.8772 1015.88 72.8459C1024.54 56.0549 1035.65 42.0573 1048.92 31.2425C1060.4 21.8864 1073.34 15.0912 1087.37 11.0451C1100.73 7.19377 1114.8 5.90336 1129.19 7.20927C1157.47 9.77683 1185.15 22.2959 1207.1 42.4579C1218.84 53.235 1229.49 66.2012 1238.77 80.9935C1247.57 95.0132 1255.19 110.762 1261.42 127.805C1273.16 159.911 1279.9 196.447 1280.91 233.462L1280 233.5C1277.83 154.676 1250.37 83.5876 1206.54 43.3411C1160 0.600009 1093.92 -4.10349 1049.43 32.1611C1005.36 68.0848 987.065 136.132 993.501 240.191C994.009 248.423 995.047 258.593 996.147 269.362C999.382 301.067 1003.41 340.525 999.165 373.868C996.853 392.029 992.207 406.624 985.356 417.251C981.503 423.225 976.858 428.108 971.549 431.76C965.899 435.647 959.331 438.256 952.025 439.518C949.04 440.034 946.003 440.293 942.914 440.293C931.66 440.293 919.671 436.86 906.535 429.905C891.737 422.07 877.456 410.764 865.981 401.68C837.204 378.895 809.751 353.255 784.384 325.467C762.405 301.392 743.019 273.255 724.27 246.046C702.781 214.859 680.56 182.609 654.448 156.564C623.16 125.355 587.311 113.491 547.897 121.306C468.169 137.115 386.042 233.655 343.473 316.662C330.4 342.154 320.563 369.583 311.05 396.109C307.565 405.825 303.963 415.874 300.231 425.753C292.661 445.786 285.185 460.132 276.703 470.893C271.409 477.609 265.665 482.903 259.631 486.628C252.922 490.77 245.614 493.125 237.911 493.627C236.667 493.705 235.413 493.745 234.158 493.745Z" fill="white"/>
</g>
</svg>
