<svg width="80" height="56" viewBox="0 0 80 56" fill="none" xmlns="http://www.w3.org/2000/svg">
<path d="M61.5972 25.8125L62.2222 37.3333C62.3148 39.0104 61.3657 40.566 59.375 42C57.3843 43.434 54.6644 44.5703 51.2153 45.4089C47.7662 46.2474 44.0278 46.6667 40 46.6667C35.9722 46.6667 32.2338 46.2474 28.7847 45.4089C25.3356 44.5703 22.6157 43.434 20.625 42C18.6343 40.566 17.6852 39.0104 17.7778 37.3333L18.4028 25.8125L38.3333 32.4115C38.8426 32.5816 39.3981 32.6667 40 32.6667C40.6019 32.6667 41.1574 32.5816 41.6667 32.4115L61.5972 25.8125ZM80 14C80 14.559 79.7454 14.9358 79.2361 15.1302L40.3472 27.9635C40.2546 27.9878 40.1389 28 40 28C39.8611 28 39.7454 27.9878 39.6528 27.9635L17.0139 20.4531C16.0185 21.2795 15.1968 22.6345 14.5486 24.5182C13.9005 26.4019 13.5069 28.5712 13.3681 31.026C14.8264 31.901 15.5556 33.2257 15.5556 35C15.5556 36.6771 14.8843 37.9774 13.5417 38.901L15.5556 54.6875C15.6019 55.0278 15.5093 55.3316 15.2778 55.599C15.0694 55.8663 14.7917 56 14.4444 56H7.77778C7.43056 56 7.15278 55.8663 6.94444 55.599C6.71296 55.3316 6.62037 55.0278 6.66667 54.6875L8.68056 38.901C7.33796 37.9774 6.66667 36.6771 6.66667 35C6.66667 33.2257 7.41898 31.8767 8.92361 30.9531C9.17824 25.9219 10.3125 21.9115 12.3264 18.9219L0.763889 15.1302C0.25463 14.9358 0 14.559 0 14C0 13.441 0.25463 13.0642 0.763889 12.8698L39.6528 0.0364583C39.7454 0.0121528 39.8611 0 40 0C40.1389 0 40.2546 0.0121528 40.3472 0.0364583L79.2361 12.8698C79.7454 13.0642 80 13.441 80 14Z" fill="black"/>
</svg>
